<?xml version="1.0" standalone="yes"?>
<!-- SVG graphic -->
<svg xmlns='http://www.w3.org/2000/svg' xmlns:xlink='http://www.w3.org/1999/xlink'
 version="1.1">
<rect x="0" y="0" width="6" height="200" stroke="black" stroke-width="1" fill="blue" tooltip="enable"><title>(0,451)</title></rect><rect x="6" y="78.9357" width="6" height="121.064" stroke="black" stroke-width="1" fill="blue" tooltip="enable"><title>(0.0341543,273)</title></rect><rect x="12" y="88.2483" width="6" height="111.752" stroke="black" stroke-width="1" fill="blue" tooltip="enable"><title>(0.0683085,252)</title></rect><rect x="18" y="126.829" width="6" height="73.1707" stroke="black" stroke-width="1" fill="blue" tooltip="enable"><title>(0.102463,165)</title></rect><rect x="24" y="121.508" width="6" height="78.4922" stroke="black" stroke-width="1" fill="blue" tooltip="enable"><title>(0.136617,177)</title></rect><rect x="30" y="138.359" width="6" height="61.6408" stroke="black" stroke-width="1" fill="blue" tooltip="enable"><title>(0.170771,139)</title></rect><rect x="36" y="150.776" width="6" height="49.2239" stroke="black" stroke-width="1" fill="blue" tooltip="enable"><title>(0.204926,111)</title></rect><rect x="42" y="160.976" width="6" height="39.0244" stroke="black" stroke-width="1" fill="blue" tooltip="enable"><title>(0.23908,88)</title></rect><rect x="48" y="161.419" width="6" height="38.5809" stroke="black" stroke-width="1" fill="blue" tooltip="enable"><title>(0.273234,87)</title></rect><rect x="54" y="165.41" width="6" height="34.5898" stroke="black" stroke-width="1" fill="blue" tooltip="enable"><title>(0.307388,78)</title></rect><rect x="60" y="175.166" width="6" height="24.8337" stroke="black" stroke-width="1" fill="blue" tooltip="enable"><title>(0.341543,56)</title></rect><rect x="66" y="170.288" width="6" height="29.7118" stroke="black" stroke-width="1" fill="blue" tooltip="enable"><title>(0.375697,67)</title></rect><rect x="72" y="175.166" width="6" height="24.8337" stroke="black" stroke-width="1" fill="blue" tooltip="enable"><title>(0.409851,56)</title></rect><rect x="78" y="180.044" width="6" height="19.9557" stroke="black" stroke-width="1" fill="blue" tooltip="enable"><title>(0.444005,45)</title></rect><rect x="84" y="183.592" width="6" height="16.408" stroke="black" stroke-width="1" fill="blue" tooltip="enable"><title>(0.47816,37)</title></rect><rect x="90" y="184.035" width="6" height="15.9645" stroke="black" stroke-width="1" fill="blue" tooltip="enable"><title>(0.512314,36)</title></rect><rect x="96" y="184.035" width="6" height="15.9645" stroke="black" stroke-width="1" fill="blue" tooltip="enable"><title>(0.546468,36)</title></rect><rect x="102" y="187.14" width="6" height="12.8603" stroke="black" stroke-width="1" fill="blue" tooltip="enable"><title>(0.580622,29)</title></rect><rect x="108" y="186.696" width="6" height="13.3038" stroke="black" stroke-width="1" fill="blue" tooltip="enable"><title>(0.614777,30)</title></rect><rect x="114" y="191.574" width="6" height="8.42572" stroke="black" stroke-width="1" fill="blue" tooltip="enable"><title>(0.648931,19)</title></rect><rect x="120" y="184.479" width="6" height="15.5211" stroke="black" stroke-width="1" fill="blue" tooltip="enable"><title>(0.683085,35)</title></rect><rect x="126" y="192.905" width="6" height="7.09534" stroke="black" stroke-width="1" fill="blue" tooltip="enable"><title>(0.717239,16)</title></rect><rect x="132" y="193.348" width="6" height="6.65188" stroke="black" stroke-width="1" fill="blue" tooltip="enable"><title>(0.751394,15)</title></rect><rect x="138" y="192.018" width="6" height="7.98226" stroke="black" stroke-width="1" fill="blue" tooltip="enable"><title>(0.785548,18)</title></rect><rect x="144" y="194.235" width="6" height="5.76497" stroke="black" stroke-width="1" fill="blue" tooltip="enable"><title>(0.819702,13)</title></rect><rect x="150" y="195.122" width="6" height="4.87805" stroke="black" stroke-width="1" fill="blue" tooltip="enable"><title>(0.853857,11)</title></rect><rect x="156" y="193.348" width="6" height="6.65188" stroke="black" stroke-width="1" fill="blue" tooltip="enable"><title>(0.888011,15)</title></rect><rect x="162" y="194.235" width="6" height="5.76497" stroke="black" stroke-width="1" fill="blue" tooltip="enable"><title>(0.922165,13)</title></rect><rect x="168" y="193.348" width="6" height="6.65188" stroke="black" stroke-width="1" fill="blue" tooltip="enable"><title>(0.956319,15)</title></rect><rect x="174" y="196.452" width="6" height="3.54767" stroke="black" stroke-width="1" fill="blue" tooltip="enable"><title>(0.990474,8)</title></rect><rect x="180" y="197.339" width="6" height="2.66075" stroke="black" stroke-width="1" fill="blue" tooltip="enable"><title>(1.02463,6)</title></rect><rect x="186" y="198.226" width="6" height="1.77384" stroke="black" stroke-width="1" fill="blue" tooltip="enable"><title>(1.05878,4)</title></rect><rect x="192" y="197.783" width="6" height="2.21729" stroke="black" stroke-width="1" fill="blue" tooltip="enable"><title>(1.09294,5)</title></rect><rect x="198" y="195.122" width="6" height="4.87805" stroke="black" stroke-width="1" fill="blue" tooltip="enable"><title>(1.12709,11)</title></rect><rect x="204" y="192.018" width="6" height="7.98226" stroke="black" stroke-width="1" fill="blue" tooltip="enable"><title>(1.16124,18)</title></rect><rect x="210" y="197.339" width="6" height="2.66075" stroke="black" stroke-width="1" fill="blue" tooltip="enable"><title>(1.1954,6)</title></rect><rect x="216" y="197.339" width="6" height="2.66075" stroke="black" stroke-width="1" fill="blue" tooltip="enable"><title>(1.22955,6)</title></rect><rect x="222" y="197.783" width="6" height="2.21729" stroke="black" stroke-width="1" fill="blue" tooltip="enable"><title>(1.26371,5)</title></rect><rect x="228" y="196.452" width="6" height="3.54767" stroke="black" stroke-width="1" fill="blue" tooltip="enable"><title>(1.29786,8)</title></rect><rect x="234" y="199.557" width="6" height="0.443459" stroke="black" stroke-width="1" fill="blue" tooltip="enable"><title>(1.33202,1)</title></rect><rect x="240" y="196.009" width="6" height="3.99113" stroke="black" stroke-width="1" fill="blue" tooltip="enable"><title>(1.36617,9)</title></rect><rect x="246" y="197.339" width="6" height="2.66075" stroke="black" stroke-width="1" fill="blue" tooltip="enable"><title>(1.40032,6)</title></rect><rect x="252" y="197.783" width="6" height="2.21729" stroke="black" stroke-width="1" fill="blue" tooltip="enable"><title>(1.43448,5)</title></rect><rect x="258" y="197.783" width="6" height="2.21729" stroke="black" stroke-width="1" fill="blue" tooltip="enable"><title>(1.46863,5)</title></rect><rect x="264" y="199.557" width="6" height="0.443459" stroke="black" stroke-width="1" fill="blue" tooltip="enable"><title>(1.50279,1)</title></rect><rect x="270" y="199.557" width="6" height="0.443459" stroke="black" stroke-width="1" fill="blue" tooltip="enable"><title>(1.53694,1)</title></rect><rect x="276" y="199.557" width="6" height="0.443459" stroke="black" stroke-width="1" fill="blue" tooltip="enable"><title>(1.5711,1)</title></rect><rect x="282" y="198.226" width="6" height="1.77384" stroke="black" stroke-width="1" fill="blue" tooltip="enable"><title>(1.60525,4)</title></rect><rect x="288" y="199.557" width="6" height="0.443459" stroke="black" stroke-width="1" fill="blue" tooltip="enable"><title>(1.6394,1)</title></rect><rect x="294" y="198.226" width="6" height="1.77384" stroke="black" stroke-width="1" fill="blue" tooltip="enable"><title>(1.67356,4)</title></rect><rect x="300" y="198.226" width="6" height="1.77384" stroke="black" stroke-width="1" fill="blue" tooltip="enable"><title>(1.70771,4)</title></rect><rect x="306" y="199.557" width="6" height="0.443459" stroke="black" stroke-width="1" fill="blue" tooltip="enable"><title>(1.74187,1)</title></rect><rect x="312" y="199.557" width="6" height="0.443459" stroke="black" stroke-width="1" fill="blue" tooltip="enable"><title>(1.77602,1)</title></rect><rect x="318" y="199.113" width="6" height="0.886918" stroke="black" stroke-width="1" fill="blue" tooltip="enable"><title>(1.81018,2)</title></rect><rect x="324" y="198.67" width="6" height="1.33038" stroke="black" stroke-width="1" fill="blue" tooltip="enable"><title>(1.84433,3)</title></rect><rect x="330" y="199.557" width="6" height="0.443459" stroke="black" stroke-width="1" fill="blue" tooltip="enable"><title>(1.87848,1)</title></rect><rect x="336" y="200" width="6" height="0" stroke="black" stroke-width="1" fill="blue" tooltip="enable"><title>(1.91264,0)</title></rect><rect x="342" y="198.67" width="6" height="1.33038" stroke="black" stroke-width="1" fill="blue" tooltip="enable"><title>(1.94679,3)</title></rect><rect x="348" y="199.113" width="6" height="0.886918" stroke="black" stroke-width="1" fill="blue" tooltip="enable"><title>(1.98095,2)</title></rect><rect x="354" y="199.557" width="6" height="0.443459" stroke="black" stroke-width="1" fill="blue" tooltip="enable"><title>(2.0151,1)</title></rect><rect x="360" y="200" width="6" height="0" stroke="black" stroke-width="1" fill="blue" tooltip="enable"><title>(2.04926,0)</title></rect><rect x="366" y="198.67" width="6" height="1.33038" stroke="black" stroke-width="1" fill="blue" tooltip="enable"><title>(2.08341,3)</title></rect><rect x="372" y="199.113" width="6" height="0.886918" stroke="black" stroke-width="1" fill="blue" tooltip="enable"><title>(2.11756,2)</title></rect><rect x="378" y="199.557" width="6" height="0.443459" stroke="black" stroke-width="1" fill="blue" tooltip="enable"><title>(2.15172,1)</title></rect><rect x="384" y="200" width="6" height="0" stroke="black" stroke-width="1" fill="blue" tooltip="enable"><title>(2.18587,0)</title></rect><rect x="390" y="200" width="6" height="0" stroke="black" stroke-width="1" fill="blue" tooltip="enable"><title>(2.22003,0)</title></rect><rect x="396" y="199.557" width="6" height="0.443459" stroke="black" stroke-width="1" fill="blue" tooltip="enable"><title>(2.25418,1)</title></rect><rect x="402" y="199.557" width="6" height="0.443459" stroke="black" stroke-width="1" fill="blue" tooltip="enable"><title>(2.28834,1)</title></rect><rect x="408" y="200" width="6" height="0" stroke="black" stroke-width="1" fill="blue" tooltip="enable"><title>(2.32249,0)</title></rect><rect x="414" y="199.557" width="6" height="0.443459" stroke="black" stroke-width="1" fill="blue" tooltip="enable"><title>(2.35664,1)</title></rect><rect x="420" y="199.557" width="6" height="0.443459" stroke="black" stroke-width="1" fill="blue" tooltip="enable"><title>(2.3908,1)</title></rect><rect x="426" y="200" width="6" height="0" stroke="black" stroke-width="1" fill="blue" tooltip="enable"><title>(2.42495,0)</title></rect><rect x="432" y="199.557" width="6" height="0.443459" stroke="black" stroke-width="1" fill="blue" tooltip="enable"><title>(2.45911,1)</title></rect><rect x="438" y="200" width="6" height="0" stroke="black" stroke-width="1" fill="blue" tooltip="enable"><title>(2.49326,0)</title></rect><rect x="444" y="200" width="6" height="0" stroke="black" stroke-width="1" fill="blue" tooltip="enable"><title>(2.52742,0)</title></rect><rect x="450" y="200" width="6" height="0" stroke="black" stroke-width="1" fill="blue" tooltip="enable"><title>(2.56157,0)</title></rect><rect x="456" y="200" width="6" height="0" stroke="black" stroke-width="1" fill="blue" tooltip="enable"><title>(2.59572,0)</title></rect><rect x="462" y="199.113" width="6" height="0.886918" stroke="black" stroke-width="1" fill="blue" tooltip="enable"><title>(2.62988,2)</title></rect><rect x="468" y="200" width="6" height="0" stroke="black" stroke-width="1" fill="blue" tooltip="enable"><title>(2.66403,0)</title></rect><rect x="474" y="199.557" width="6" height="0.443459" stroke="black" stroke-width="1" fill="blue" tooltip="enable"><title>(2.69819,1)</title></rect><rect x="480" y="200" width="6" height="0" stroke="black" stroke-width="1" fill="blue" tooltip="enable"><title>(2.73234,0)</title></rect><rect x="486" y="200" width="6" height="0" stroke="black" stroke-width="1" fill="blue" tooltip="enable"><title>(2.76649,0)</title></rect><rect x="492" y="200" width="6" height="0" stroke="black" stroke-width="1" fill="blue" tooltip="enable"><title>(2.80065,0)</title></rect><rect x="498" y="200" width="6" height="0" stroke="black" stroke-width="1" fill="blue" tooltip="enable"><title>(2.8348,0)</title></rect><rect x="504" y="200" width="6" height="0" stroke="black" stroke-width="1" fill="blue" tooltip="enable"><title>(2.86896,0)</title></rect><rect x="510" y="199.557" width="6" height="0.443459" stroke="black" stroke-width="1" fill="blue" tooltip="enable"><title>(2.90311,1)</title></rect><rect x="516" y="200" width="6" height="0" stroke="black" stroke-width="1" fill="blue" tooltip="enable"><title>(2.93727,0)</title></rect><rect x="522" y="200" width="6" height="0" stroke="black" stroke-width="1" fill="blue" tooltip="enable"><title>(2.97142,0)</title></rect><rect x="528" y="200" width="6" height="0" stroke="black" stroke-width="1" fill="blue" tooltip="enable"><title>(3.00557,0)</title></rect><rect x="534" y="199.113" width="6" height="0.886918" stroke="black" stroke-width="1" fill="blue" tooltip="enable"><title>(3.03973,2)</title></rect><rect x="540" y="200" width="6" height="0" stroke="black" stroke-width="1" fill="blue" tooltip="enable"><title>(3.07388,0)</title></rect><rect x="546" y="200" width="6" height="0" stroke="black" stroke-width="1" fill="blue" tooltip="enable"><title>(3.10804,0)</title></rect><rect x="552" y="200" width="6" height="0" stroke="black" stroke-width="1" fill="blue" tooltip="enable"><title>(3.14219,0)</title></rect><rect x="558" y="200" width="6" height="0" stroke="black" stroke-width="1" fill="blue" tooltip="enable"><title>(3.17635,0)</title></rect><rect x="564" y="200" width="6" height="0" stroke="black" stroke-width="1" fill="blue" tooltip="enable"><title>(3.2105,0)</title></rect><rect x="570" y="200" width="6" height="0" stroke="black" stroke-width="1" fill="blue" tooltip="enable"><title>(3.24465,0)</title></rect><rect x="576" y="200" width="6" height="0" stroke="black" stroke-width="1" fill="blue" tooltip="enable"><title>(3.27881,0)</title></rect><rect x="582" y="200" width="6" height="0" stroke="black" stroke-width="1" fill="blue" tooltip="enable"><title>(3.31296,0)</title></rect><rect x="588" y="200" width="6" height="0" stroke="black" stroke-width="1" fill="blue" tooltip="enable"><title>(3.34712,0)</title></rect><rect x="594" y="200" width="6" height="0" stroke="black" stroke-width="1" fill="blue" tooltip="enable"><title>(3.38127,0)</title></rect><text x="30" y="240" font-size="20" fill="black">0</text>
<text x="600" y="240" font-size="20" fill="black">3.41543</text>
<polyline points="0,220,600,220" stroke="black" stroke-width="1" fill="none"/>
<text x="720" y="20" font-size="20" fill="black">451</text>
<text x="720" y="200" font-size="20" fill="black">0</text>
<polyline points="660,0,660,200" stroke="black" stroke-width="1" fill="none"/>
</svg>