<?xml version="1.0" standalone="yes"?>
<!-- SVG graphic -->
<svg xmlns='http://www.w3.org/2000/svg' xmlns:xlink='http://www.w3.org/1999/xlink'
width="70px" height="70px" preserveAspectRatio="xMinYMin meet" viewBox="0 0 70 70" version="1.1">
<rect x="5" y="0" width="2.5" height="2.5" fill="rgb(247,0,7)" tooltip="enable"><title>(1,0 134)</title></rect><rect x="10" y="0" width="2.5" height="2.5" fill="rgb(83,0,171)" tooltip="enable"><title>(2,0 45)</title></rect><rect x="25" y="0" width="2.5" height="2.5" fill="rgb(162,0,92)" tooltip="enable"><title>(5,0 88)</title></rect><rect x="35" y="0" width="2.5" height="2.5" fill="rgb(177,0,77)" tooltip="enable"><title>(7,0 96)</title></rect><rect x="40" y="0" width="2.5" height="2.5" fill="rgb(40,0,214)" tooltip="enable"><title>(8,0 22)</title></rect><rect x="45" y="0" width="2.5" height="2.5" fill="rgb(85,0,169)" tooltip="enable"><title>(9,0 46)</title></rect><rect x="50" y="0" width="2.5" height="2.5" fill="rgb(72,0,182)" tooltip="enable"><title>(10,0 39)</title></rect><rect x="10" y="5" width="2.5" height="2.5" fill="rgb(205,0,49)" tooltip="enable"><title>(2,1 111)</title></rect><rect x="25" y="5" width="2.5" height="2.5" fill="rgb(73,0,181)" tooltip="enable"><title>(5,1 40)</title></rect><rect x="35" y="5" width="2.5" height="2.5" fill="rgb(255,0,0)" tooltip="enable"><title>(7,1 138)</title></rect><rect x="40" y="5" width="2.5" height="2.5" fill="rgb(66,0,188)" tooltip="enable"><title>(8,1 36)</title></rect><rect x="45" y="5" width="2.5" height="2.5" fill="rgb(121,0,133)" tooltip="enable"><title>(9,1 66)</title></rect><rect x="50" y="5" width="2.5" height="2.5" fill="rgb(77,0,177)" tooltip="enable"><title>(10,1 42)</title></rect><rect x="15" y="10" width="2.5" height="2.5" fill="rgb(129,0,125)" tooltip="enable"><title>(3,2 70)</title></rect><rect x="25" y="10" width="2.5" height="2.5" fill="rgb(46,0,208)" tooltip="enable"><title>(5,2 25)</title></rect><rect x="35" y="10" width="2.5" height="2.5" fill="rgb(79,0,175)" tooltip="enable"><title>(7,2 43)</title></rect><rect x="40" y="10" width="2.5" height="2.5" fill="rgb(36,0,218)" tooltip="enable"><title>(8,2 20)</title></rect><rect x="45" y="10" width="2.5" height="2.5" fill="rgb(86,0,168)" tooltip="enable"><title>(9,2 47)</title></rect><rect x="50" y="10" width="2.5" height="2.5" fill="rgb(36,0,218)" tooltip="enable"><title>(10,2 20)</title></rect><rect x="20" y="15" width="2.5" height="2.5" fill="rgb(109,0,145)" tooltip="enable"><title>(4,3 59)</title></rect><rect x="35" y="15" width="2.5" height="2.5" fill="rgb(33,0,221)" tooltip="enable"><title>(7,3 18)</title></rect><rect x="30" y="25" width="2.5" height="2.5" fill="rgb(62,0,192)" tooltip="enable"><title>(6,5 34)</title></rect><rect x="35" y="25" width="2.5" height="2.5" fill="rgb(73,0,181)" tooltip="enable"><title>(7,5 40)</title></rect><rect x="45" y="25" width="2.5" height="2.5" fill="rgb(44,0,210)" tooltip="enable"><title>(9,5 24)</title></rect><rect x="50" y="25" width="2.5" height="2.5" fill="rgb(35,0,219)" tooltip="enable"><title>(10,5 19)</title></rect><rect x="40" y="35" width="2.5" height="2.5" fill="rgb(153,0,101)" tooltip="enable"><title>(8,7 83)</title></rect><rect x="45" y="35" width="2.5" height="2.5" fill="rgb(66,0,188)" tooltip="enable"><title>(9,7 36)</title></rect><rect x="50" y="35" width="2.5" height="2.5" fill="rgb(42,0,212)" tooltip="enable"><title>(10,7 23)</title></rect><rect x="45" y="40" width="2.5" height="2.5" fill="rgb(33,0,221)" tooltip="enable"><title>(9,8 18)</title></rect><rect x="50" y="45" width="2.5" height="2.5" fill="rgb(173,0,81)" tooltip="enable"><title>(10,9 94)</title></rect><text x="60" y="5" font-size="5" fill="black">0</text>
<text x="60" y="50" font-size="5" fill="black">11</text>
<polyline points="60,10,60,45" stroke="black" stroke-width="1" fill="none"/>
<text x="5" y="60" font-size="5" fill="black">0</text>
<text x="50" y="60" font-size="5" fill="black">11</text>
<polyline points="10,60,45,60" stroke="black" stroke-width="1" fill="none"/>
</svg>