<?xml version="1.0" standalone="yes"?>
<!-- SVG graphic -->
<svg xmlns='http://www.w3.org/2000/svg' xmlns:xlink='http://www.w3.org/1999/xlink'
width="70px" height="70px" preserveAspectRatio="xMinYMin meet" viewBox="0 0 70 70" version="1.1">
<rect x="5" y="0" width="2.5" height="2.5" fill="rgb(225,0,29)" tooltip="enable"><title>(1,0 1960)</title></rect><rect x="10" y="0" width="2.5" height="2.5" fill="rgb(130,0,124)" tooltip="enable"><title>(2,0 1136)</title></rect><rect x="15" y="0" width="2.5" height="2.5" fill="rgb(90,0,164)" tooltip="enable"><title>(3,0 787)</title></rect><rect x="20" y="0" width="2.5" height="2.5" fill="rgb(67,0,187)" tooltip="enable"><title>(4,0 585)</title></rect><rect x="25" y="0" width="2.5" height="2.5" fill="rgb(39,0,215)" tooltip="enable"><title>(5,0 342)</title></rect><rect x="30" y="0" width="2.5" height="2.5" fill="rgb(30,0,224)" tooltip="enable"><title>(6,0 265)</title></rect><rect x="35" y="0" width="2.5" height="2.5" fill="rgb(26,0,228)" tooltip="enable"><title>(7,0 228)</title></rect><rect x="40" y="0" width="2.5" height="2.5" fill="rgb(22,0,232)" tooltip="enable"><title>(8,0 192)</title></rect><rect x="45" y="0" width="2.5" height="2.5" fill="rgb(2,0,252)" tooltip="enable"><title>(9,0 25)</title></rect><rect x="50" y="0" width="2.5" height="2.5" fill="rgb(8,0,246)" tooltip="enable"><title>(10,0 71)</title></rect><rect x="10" y="5" width="2.5" height="2.5" fill="rgb(242,0,12)" tooltip="enable"><title>(2,1 2107)</title></rect><rect x="15" y="5" width="2.5" height="2.5" fill="rgb(187,0,67)" tooltip="enable"><title>(3,1 1636)</title></rect><rect x="20" y="5" width="2.5" height="2.5" fill="rgb(130,0,124)" tooltip="enable"><title>(4,1 1139)</title></rect><rect x="25" y="5" width="2.5" height="2.5" fill="rgb(72,0,182)" tooltip="enable"><title>(5,1 627)</title></rect><rect x="30" y="5" width="2.5" height="2.5" fill="rgb(59,0,195)" tooltip="enable"><title>(6,1 514)</title></rect><rect x="35" y="5" width="2.5" height="2.5" fill="rgb(52,0,202)" tooltip="enable"><title>(7,1 455)</title></rect><rect x="40" y="5" width="2.5" height="2.5" fill="rgb(26,0,228)" tooltip="enable"><title>(8,1 229)</title></rect><rect x="45" y="5" width="2.5" height="2.5" fill="rgb(4,0,250)" tooltip="enable"><title>(9,1 41)</title></rect><rect x="50" y="5" width="2.5" height="2.5" fill="rgb(10,0,244)" tooltip="enable"><title>(10,1 88)</title></rect><rect x="15" y="10" width="2.5" height="2.5" fill="rgb(255,0,0)" tooltip="enable"><title>(3,2 2220)</title></rect><rect x="20" y="10" width="2.5" height="2.5" fill="rgb(177,0,77)" tooltip="enable"><title>(4,2 1549)</title></rect><rect x="25" y="10" width="2.5" height="2.5" fill="rgb(105,0,149)" tooltip="enable"><title>(5,2 915)</title></rect><rect x="30" y="10" width="2.5" height="2.5" fill="rgb(82,0,172)" tooltip="enable"><title>(6,2 719)</title></rect><rect x="35" y="10" width="2.5" height="2.5" fill="rgb(62,0,192)" tooltip="enable"><title>(7,2 544)</title></rect><rect x="40" y="10" width="2.5" height="2.5" fill="rgb(33,0,221)" tooltip="enable"><title>(8,2 296)</title></rect><rect x="45" y="10" width="2.5" height="2.5" fill="rgb(8,0,246)" tooltip="enable"><title>(9,2 73)</title></rect><rect x="50" y="10" width="2.5" height="2.5" fill="rgb(10,0,244)" tooltip="enable"><title>(10,2 92)</title></rect><rect x="20" y="15" width="2.5" height="2.5" fill="rgb(217,0,37)" tooltip="enable"><title>(4,3 1896)</title></rect><rect x="25" y="15" width="2.5" height="2.5" fill="rgb(116,0,138)" tooltip="enable"><title>(5,3 1011)</title></rect><rect x="30" y="15" width="2.5" height="2.5" fill="rgb(102,0,152)" tooltip="enable"><title>(6,3 890)</title></rect><rect x="35" y="15" width="2.5" height="2.5" fill="rgb(70,0,184)" tooltip="enable"><title>(7,3 612)</title></rect><rect x="40" y="15" width="2.5" height="2.5" fill="rgb(38,0,216)" tooltip="enable"><title>(8,3 338)</title></rect><rect x="45" y="15" width="2.5" height="2.5" fill="rgb(9,0,245)" tooltip="enable"><title>(9,3 80)</title></rect><rect x="50" y="15" width="2.5" height="2.5" fill="rgb(10,0,244)" tooltip="enable"><title>(10,3 88)</title></rect><rect x="25" y="20" width="2.5" height="2.5" fill="rgb(190,0,64)" tooltip="enable"><title>(5,4 1658)</title></rect><rect x="30" y="20" width="2.5" height="2.5" fill="rgb(137,0,117)" tooltip="enable"><title>(6,4 1196)</title></rect><rect x="35" y="20" width="2.5" height="2.5" fill="rgb(103,0,151)" tooltip="enable"><title>(7,4 899)</title></rect><rect x="40" y="20" width="2.5" height="2.5" fill="rgb(58,0,196)" tooltip="enable"><title>(8,4 509)</title></rect><rect x="45" y="20" width="2.5" height="2.5" fill="rgb(10,0,244)" tooltip="enable"><title>(9,4 91)</title></rect><rect x="50" y="20" width="2.5" height="2.5" fill="rgb(12,0,242)" tooltip="enable"><title>(10,4 108)</title></rect><rect x="30" y="25" width="2.5" height="2.5" fill="rgb(180,0,74)" tooltip="enable"><title>(6,5 1574)</title></rect><rect x="35" y="25" width="2.5" height="2.5" fill="rgb(121,0,133)" tooltip="enable"><title>(7,5 1055)</title></rect><rect x="40" y="25" width="2.5" height="2.5" fill="rgb(78,0,176)" tooltip="enable"><title>(8,5 685)</title></rect><rect x="45" y="25" width="2.5" height="2.5" fill="rgb(15,0,239)" tooltip="enable"><title>(9,5 134)</title></rect><rect x="50" y="25" width="2.5" height="2.5" fill="rgb(12,0,242)" tooltip="enable"><title>(10,5 107)</title></rect><rect x="35" y="30" width="2.5" height="2.5" fill="rgb(184,0,70)" tooltip="enable"><title>(7,6 1609)</title></rect><rect x="40" y="30" width="2.5" height="2.5" fill="rgb(110,0,144)" tooltip="enable"><title>(8,6 966)</title></rect><rect x="45" y="30" width="2.5" height="2.5" fill="rgb(23,0,231)" tooltip="enable"><title>(9,6 203)</title></rect><rect x="50" y="30" width="2.5" height="2.5" fill="rgb(15,0,239)" tooltip="enable"><title>(10,6 137)</title></rect><rect x="40" y="35" width="2.5" height="2.5" fill="rgb(168,0,86)" tooltip="enable"><title>(8,7 1469)</title></rect><rect x="45" y="35" width="2.5" height="2.5" fill="rgb(34,0,220)" tooltip="enable"><title>(9,7 304)</title></rect><rect x="50" y="35" width="2.5" height="2.5" fill="rgb(35,0,219)" tooltip="enable"><title>(10,7 307)</title></rect><rect x="45" y="40" width="2.5" height="2.5" fill="rgb(60,0,194)" tooltip="enable"><title>(9,8 527)</title></rect><rect x="50" y="40" width="2.5" height="2.5" fill="rgb(59,0,195)" tooltip="enable"><title>(10,8 519)</title></rect><rect x="50" y="45" width="2.5" height="2.5" fill="rgb(35,0,219)" tooltip="enable"><title>(10,9 306)</title></rect><text x="60" y="5" font-size="5" fill="black">0</text>
<text x="60" y="50" font-size="5" fill="black">11</text>
<polyline points="60,10,60,45" stroke="black" stroke-width="1" fill="none"/>
<text x="5" y="60" font-size="5" fill="black">0</text>
<text x="50" y="60" font-size="5" fill="black">11</text>
<polyline points="10,60,45,60" stroke="black" stroke-width="1" fill="none"/>
</svg>