<?xml version="1.0" encoding="UTF-8" standalone="no"?>
<!DOCTYPE svg PUBLIC "-//W3C//DTD SVG 1.1//EN"
 "http://www.w3.org/Graphics/SVG/1.1/DTD/svg11.dtd">
<!-- Generated by graphviz version 2.38.0 (20140413.2041)
 -->
<!-- Title: 1 Pages: 1 -->
<svg width="370pt" height="413pt"
 viewBox="0.00 0.00 369.84 413.15" xmlns="http://www.w3.org/2000/svg" xmlns:xlink="http://www.w3.org/1999/xlink">
<g id="graph0" class="graph" transform="scale(1 1) rotate(0) translate(137.442 232.826)">
<title>1</title>
<polygon fill="white" stroke="none" points="-137.442,180.321 -137.442,-232.826 232.398,-232.826 232.398,180.321 -137.442,180.321"/>
<!-- n9 -->
<g id="node1" class="node"><title>n9</title>
<ellipse fill="none" stroke="black" cx="-113.944" cy="-19.5043" rx="19.4965" ry="19.4965"/>
<text text-anchor="middle" x="-113.944" y="-15.8043" font-family="Times New Roman,serif" font-size="14.00">n9</text>
</g>
<!-- n10 -->
<g id="node2" class="node"><title>n10</title>
<ellipse fill="none" stroke="black" cx="-74.5042" cy="-86.1929" rx="24.0958" ry="24.0958"/>
<text text-anchor="middle" x="-74.5042" y="-82.4929" font-family="Times New Roman,serif" font-size="14.00">n10</text>
</g>
<!-- n9&#45;&#45;n10 -->
<g id="edge1" class="edge"><title>n9&#45;&#45;n10</title>
<path fill="none" stroke="black" d="M-103.992,-36.3327C-98.7888,-45.1302 -92.3723,-55.9799 -86.8548,-65.3095"/>
</g>
<!-- n8 -->
<g id="node3" class="node"><title>n8</title>
<ellipse fill="none" stroke="black" cx="-73.8775" cy="106.569" rx="19.4965" ry="19.4965"/>
<text text-anchor="middle" x="-73.8775" y="110.269" font-family="Times New Roman,serif" font-size="14.00">n8</text>
</g>
<!-- n8&#45;&#45;n9 -->
<g id="edge2" class="edge"><title>n8&#45;&#45;n9</title>
<path fill="none" stroke="black" d="M-79.7895,87.9668C-87.3647,64.1305 -100.421,23.0477 -108.008,-0.825392"/>
</g>
<!-- n7 -->
<g id="node4" class="node"><title>n7</title>
<ellipse fill="none" stroke="black" cx="29.8608" cy="0.302319" rx="19.4965" ry="19.4965"/>
<text text-anchor="middle" x="29.8608" y="4.00232" font-family="Times New Roman,serif" font-size="14.00">n7</text>
</g>
<!-- n7&#45;&#45;n9 -->
<g id="edge4" class="edge"><title>n7&#45;&#45;n9</title>
<path fill="none" stroke="black" d="M10.4667,-2.36889C-16.9795,-6.14912 -66.8692,-13.0206 -94.3979,-16.8122"/>
</g>
<!-- n7&#45;&#45;n10 -->
<g id="edge3" class="edge"><title>n7&#45;&#45;n10</title>
<path fill="none" stroke="black" d="M14.4614,-12.4603C-4.24991,-27.9678 -35.7993,-54.1152 -55.8647,-70.7449"/>
</g>
<!-- n7&#45;&#45;n8 -->
<g id="edge5" class="edge"><title>n7&#45;&#45;n8</title>
<path fill="none" stroke="black" d="M15.8702,14.634C-4.03957,35.0291 -40.3211,72.195 -60.1086,92.4648"/>
</g>
<!-- n5 -->
<g id="node5" class="node"><title>n5</title>
<ellipse fill="none" stroke="black" cx="3.87955" cy="-89.2664" rx="19.4965" ry="19.4965"/>
<text text-anchor="middle" x="3.87955" y="-85.5664" font-family="Times New Roman,serif" font-size="14.00">n5</text>
</g>
<!-- n5&#45;&#45;n9 -->
<g id="edge7" class="edge"><title>n5&#45;&#45;n9</title>
<path fill="none" stroke="black" d="M-13.0017,-79.2712C-35.4,-66.0094 -74.7116,-42.7334 -97.0941,-29.481"/>
</g>
<!-- n5&#45;&#45;n10 -->
<g id="edge6" class="edge"><title>n5&#45;&#45;n10</title>
<path fill="none" stroke="black" d="M-15.9,-88.4908C-26.3311,-88.0818 -39.2167,-87.5765 -50.2466,-87.1441"/>
</g>
<!-- n5&#45;&#45;n7 -->
<g id="edge8" class="edge"><title>n5&#45;&#45;n7</title>
<path fill="none" stroke="black" d="M9.38951,-70.2712C13.7986,-55.071 19.9518,-33.8584 24.3588,-18.6655"/>
</g>
<!-- n6 -->
<g id="node6" class="node"><title>n6</title>
<ellipse fill="none" stroke="black" cx="31.5852" cy="-209.327" rx="19.4965" ry="19.4965"/>
<text text-anchor="middle" x="31.5852" y="-205.627" font-family="Times New Roman,serif" font-size="14.00">n6</text>
</g>
<!-- n5&#45;&#45;n6 -->
<g id="edge9" class="edge"><title>n5&#45;&#45;n6</title>
<path fill="none" stroke="black" d="M8.26958,-108.29C13.4269,-130.639 21.936,-167.513 27.1239,-189.995"/>
</g>
<!-- n3 -->
<g id="node7" class="node"><title>n3</title>
<ellipse fill="none" stroke="black" cx="118.594" cy="82.001" rx="19.4965" ry="19.4965"/>
<text text-anchor="middle" x="118.594" y="85.701" font-family="Times New Roman,serif" font-size="14.00">n3</text>
</g>
<!-- n3&#45;&#45;n7 -->
<g id="edge10" class="edge"><title>n3&#45;&#45;n7</title>
<path fill="none" stroke="black" d="M103.941,68.5101C87.4022,53.282 60.6669,28.6662 44.2407,13.5422"/>
</g>
<!-- n4 -->
<g id="node8" class="node"><title>n4</title>
<ellipse fill="none" stroke="black" cx="208.9" cy="156.823" rx="19.4965" ry="19.4965"/>
<text text-anchor="middle" x="208.9" y="160.523" font-family="Times New Roman,serif" font-size="14.00">n4</text>
</g>
<!-- n3&#45;&#45;n4 -->
<g id="edge11" class="edge"><title>n3&#45;&#45;n4</title>
<path fill="none" stroke="black" d="M133.913,94.6935C150.62,108.536 177.19,130.55 193.807,144.318"/>
</g>
<!-- n2 -->
<g id="node9" class="node"><title>n2</title>
<ellipse fill="none" stroke="black" cx="0.616296" cy="47.2989" rx="19.4965" ry="19.4965"/>
<text text-anchor="middle" x="0.616296" y="50.9989" font-family="Times New Roman,serif" font-size="14.00">n2</text>
</g>
<!-- n2&#45;&#45;n9 -->
<g id="edge13" class="edge"><title>n2&#45;&#45;n9</title>
<path fill="none" stroke="black" d="M-16.2875,37.4418C-37.947,24.8116 -75.278,3.04287 -96.9709,-9.60684"/>
</g>
<!-- n2&#45;&#45;n10 -->
<g id="edge12" class="edge"><title>n2&#45;&#45;n10</title>
<path fill="none" stroke="black" d="M-9.05061,30.1204C-22.7614,5.75581 -47.8326,-38.7965 -62.6484,-65.1248"/>
</g>
<!-- n2&#45;&#45;n8 -->
<g id="edge14" class="edge"><title>n2&#45;&#45;n8</title>
<path fill="none" stroke="black" d="M-14.8189,59.5797C-27.6038,69.752 -45.6826,84.1363 -58.4621,94.3042"/>
</g>
<!-- n2&#45;&#45;n7 -->
<g id="edge15" class="edge"><title>n2&#45;&#45;n7</title>
<path fill="none" stroke="black" d="M11.0092,30.5973C13.7673,26.1649 16.7451,21.3796 19.5014,16.9501"/>
</g>
<!-- n2&#45;&#45;n5 -->
<g id="edge16" class="edge"><title>n2&#45;&#45;n5</title>
<path fill="none" stroke="black" d="M1.08384,27.7324C1.70418,1.77136 2.79296,-43.7934 3.41287,-69.7362"/>
</g>
<!-- n2&#45;&#45;n3 -->
<g id="edge17" class="edge"><title>n2&#45;&#45;n3</title>
<path fill="none" stroke="black" d="M19.5715,52.8744C41.5874,59.3501 77.69,69.9694 99.6859,76.4393"/>
</g>
<!-- n1 -->
<g id="node10" class="node"><title>n1</title>
<ellipse fill="none" stroke="black" cx="-89.7792" cy="29.6216" rx="19.4965" ry="19.4965"/>
<text text-anchor="middle" x="-89.7792" y="33.3216" font-family="Times New Roman,serif" font-size="14.00">n1</text>
</g>
<!-- n1&#45;&#45;n9 -->
<g id="edge19" class="edge"><title>n1&#45;&#45;n9</title>
<path fill="none" stroke="black" d="M-98.5032,11.886C-100.72,7.37871 -103.101,2.53825 -105.314,-1.95949"/>
</g>
<!-- n1&#45;&#45;n10 -->
<g id="edge18" class="edge"><title>n1&#45;&#45;n10</title>
<path fill="none" stroke="black" d="M-87.2225,10.2368C-84.5897,-9.72521 -80.4826,-40.8649 -77.6517,-62.3288"/>
</g>
<!-- n1&#45;&#45;n8 -->
<g id="edge20" class="edge"><title>n1&#45;&#45;n8</title>
<path fill="none" stroke="black" d="M-85.7665,49.0387C-83.3375,60.7925 -80.2525,75.7208 -77.8338,87.425"/>
</g>
<!-- n1&#45;&#45;n7 -->
<g id="edge21" class="edge"><title>n1&#45;&#45;n7</title>
<path fill="none" stroke="black" d="M-70.8219,24.9758C-48.5513,19.5182 -11.8067,10.5135 10.596,5.02339"/>
</g>
<!-- n1&#45;&#45;n5 -->
<g id="edge22" class="edge"><title>n1&#45;&#45;n5</title>
<path fill="none" stroke="black" d="M-77.5349,14.079C-59.5853,-8.70574 -26.319,-50.9331 -8.3677,-73.72"/>
</g>
<!-- n1&#45;&#45;n2 -->
<g id="edge23" class="edge"><title>n1&#45;&#45;n2</title>
<path fill="none" stroke="black" d="M-70.6086,33.3705C-55.2682,36.3704 -33.8597,40.5569 -18.5266,43.5554"/>
</g>
<!-- n0 -->
<g id="node11" class="node"><title>n0</title>
<ellipse fill="none" stroke="black" cx="-41.3306" cy="-18.3255" rx="19.4965" ry="19.4965"/>
<text text-anchor="middle" x="-41.3306" y="-14.6255" font-family="Times New Roman,serif" font-size="14.00">n0</text>
</g>
<!-- n0&#45;&#45;n9 -->
<g id="edge25" class="edge"><title>n0&#45;&#45;n9</title>
<path fill="none" stroke="black" d="M-61.1725,-18.6476C-71.5024,-18.8153 -84.0882,-19.0196 -94.3775,-19.1867"/>
</g>
<!-- n0&#45;&#45;n10 -->
<g id="edge24" class="edge"><title>n0&#45;&#45;n10</title>
<path fill="none" stroke="black" d="M-50.0465,-36.1568C-54.2699,-44.797 -59.3794,-55.2502 -63.8338,-64.3632"/>
</g>
<!-- n0&#45;&#45;n8 -->
<g id="edge26" class="edge"><title>n0&#45;&#45;n8</title>
<path fill="none" stroke="black" d="M-46.2737,0.643368C-52.3911,24.118 -62.749,63.8653 -68.8878,87.422"/>
</g>
<!-- n0&#45;&#45;n7 -->
<g id="edge27" class="edge"><title>n0&#45;&#45;n7</title>
<path fill="none" stroke="black" d="M-22.2526,-13.3336C-12.0382,-10.6609 0.507806,-7.37813 10.7302,-4.70337"/>
</g>
<!-- n0&#45;&#45;n5 -->
<g id="edge28" class="edge"><title>n0&#45;&#45;n5</title>
<path fill="none" stroke="black" d="M-30.8448,-34.779C-23.6454,-46.076 -14.1173,-61.0268 -6.86328,-72.4094"/>
</g>
<!-- n0&#45;&#45;n2 -->
<g id="edge29" class="edge"><title>n0&#45;&#45;n2</title>
<path fill="none" stroke="black" d="M-30.7456,-1.76568C-24.4353,8.10653 -16.4465,20.6047 -10.1112,30.5161"/>
</g>
<!-- n0&#45;&#45;n1 -->
<g id="edge30" class="edge"><title>n0&#45;&#45;n1</title>
<path fill="none" stroke="black" d="M-55.3439,-4.4572C-61.7158,1.84868 -69.2413,9.29632 -75.6295,15.6184"/>
</g>
</g>
</svg>
