<?xml version="1.0" encoding="UTF-8" standalone="no"?>
<!DOCTYPE svg PUBLIC "-//W3C//DTD SVG 1.1//EN"
 "http://www.w3.org/Graphics/SVG/1.1/DTD/svg11.dtd">
<!-- Generated by graphviz version 2.38.0 (20140413.2041)
 -->
<!-- Title: 1 Pages: 1 -->
<svg width="240pt" height="243pt"
 viewBox="0.00 0.00 239.52 243.23" xmlns="http://www.w3.org/2000/svg" xmlns:xlink="http://www.w3.org/1999/xlink">
<g id="graph0" class="graph" transform="scale(1 1) rotate(0) translate(121.745 121.049)">
<title>1</title>
<polygon fill="white" stroke="none" points="-121.745,122.183 -121.745,-121.049 117.771,-121.049 117.771,122.183 -121.745,122.183"/>
<!-- n9 -->
<g id="node1" class="node"><title>n9</title>
<ellipse fill="none" stroke="black" cx="-98.2468" cy="-22.5151" rx="19.4965" ry="19.4965"/>
<text text-anchor="middle" x="-98.2468" y="-18.8151" font-family="Times New Roman,serif" font-size="14.00">n9</text>
</g>
<!-- n10 -->
<g id="node2" class="node"><title>n10</title>
<ellipse fill="none" stroke="black" cx="-23.5125" cy="-29.8795" rx="24.0958" ry="24.0958"/>
<text text-anchor="middle" x="-23.5125" y="-26.1795" font-family="Times New Roman,serif" font-size="14.00">n10</text>
</g>
<!-- n9&#45;&#45;n10 -->
<g id="edge1" class="edge"><title>n9&#45;&#45;n10</title>
<path fill="none" stroke="black" d="M-78.6112,-24.45C-69.0969,-25.3876 -57.586,-26.5219 -47.5509,-27.5107"/>
</g>
<!-- n8 -->
<g id="node3" class="node"><title>n8</title>
<ellipse fill="none" stroke="black" cx="13.8032" cy="32.9693" rx="19.4965" ry="19.4965"/>
<text text-anchor="middle" x="13.8032" y="36.6693" font-family="Times New Roman,serif" font-size="14.00">n8</text>
</g>
<!-- n8&#45;&#45;n9 -->
<g id="edge3" class="edge"><title>n8&#45;&#45;n9</title>
<path fill="none" stroke="black" d="M-3.70459,24.2999C-24.6319,13.9372 -59.4562,-3.30698 -80.4921,-13.7234"/>
</g>
<!-- n8&#45;&#45;n10 -->
<g id="edge2" class="edge"><title>n8&#45;&#45;n10</title>
<path fill="none" stroke="black" d="M3.80329,16.127C-0.773495,8.41857 -6.24336,-0.794019 -11.082,-8.94355"/>
</g>
<!-- n7 -->
<g id="node4" class="node"><title>n7</title>
<ellipse fill="none" stroke="black" cx="15.9857" cy="-97.5504" rx="19.4965" ry="19.4965"/>
<text text-anchor="middle" x="15.9857" y="-93.8504" font-family="Times New Roman,serif" font-size="14.00">n7</text>
</g>
<!-- n7&#45;&#45;n9 -->
<g id="edge5" class="edge"><title>n7&#45;&#45;n9</title>
<path fill="none" stroke="black" d="M-0.380988,-86.7997C-22.0966,-72.5355 -60.2101,-47.5 -81.9104,-33.2459"/>
</g>
<!-- n7&#45;&#45;n10 -->
<g id="edge4" class="edge"><title>n7&#45;&#45;n10</title>
<path fill="none" stroke="black" d="M6.01867,-80.4742C0.808056,-71.547 -5.61798,-60.5375 -11.1437,-51.0705"/>
</g>
<!-- n7&#45;&#45;n8 -->
<g id="edge6" class="edge"><title>n7&#45;&#45;n8</title>
<path fill="none" stroke="black" d="M15.659,-78.0103C15.2476,-53.4047 14.5447,-11.3729 14.1322,13.2956"/>
</g>
<!-- n6 -->
<g id="node5" class="node"><title>n6</title>
<ellipse fill="none" stroke="black" cx="71.3068" cy="-66.9632" rx="19.4965" ry="19.4965"/>
<text text-anchor="middle" x="71.3068" y="-63.2632" font-family="Times New Roman,serif" font-size="14.00">n6</text>
</g>
<!-- n6&#45;&#45;n9 -->
<g id="edge8" class="edge"><title>n6&#45;&#45;n9</title>
<path fill="none" stroke="black" d="M52.1864,-61.9508C19.5358,-53.3915 -46.5934,-36.0559 -79.1963,-27.5091"/>
</g>
<!-- n6&#45;&#45;n10 -->
<g id="edge7" class="edge"><title>n6&#45;&#45;n10</title>
<path fill="none" stroke="black" d="M53.0247,-59.813C37.6335,-53.7936 15.5555,-45.1589 -0.936427,-38.7089"/>
</g>
<!-- n6&#45;&#45;n8 -->
<g id="edge9" class="edge"><title>n6&#45;&#45;n8</title>
<path fill="none" stroke="black" d="M61.5521,-50.011C50.9779,-31.6346 34.1986,-2.47482 23.6058,15.934"/>
</g>
<!-- n6&#45;&#45;n7 -->
<g id="edge10" class="edge"><title>n6&#45;&#45;n7</title>
<path fill="none" stroke="black" d="M54.1061,-76.4735C47.5088,-80.1212 39.9804,-84.2836 33.3663,-87.9406"/>
</g>
<!-- n5 -->
<g id="node6" class="node"><title>n5</title>
<ellipse fill="none" stroke="black" cx="-56.1682" cy="-86.4918" rx="19.4965" ry="19.4965"/>
<text text-anchor="middle" x="-56.1682" y="-82.7918" font-family="Times New Roman,serif" font-size="14.00">n5</text>
</g>
<!-- n5&#45;&#45;n9 -->
<g id="edge12" class="edge"><title>n5&#45;&#45;n9</title>
<path fill="none" stroke="black" d="M-67.0045,-70.0162C-73.2383,-60.5383 -81.0489,-48.663 -87.301,-39.1572"/>
</g>
<!-- n5&#45;&#45;n10 -->
<g id="edge11" class="edge"><title>n5&#45;&#45;n10</title>
<path fill="none" stroke="black" d="M-46.3704,-69.5062C-42.9888,-63.6438 -39.1597,-57.0056 -35.6157,-50.8618"/>
</g>
<!-- n5&#45;&#45;n8 -->
<g id="edge13" class="edge"><title>n5&#45;&#45;n8</title>
<path fill="none" stroke="black" d="M-46.2914,-69.6293C-33.0312,-46.9903 -9.59965,-6.98602 3.7501,15.8058"/>
</g>
<!-- n5&#45;&#45;n7 -->
<g id="edge14" class="edge"><title>n5&#45;&#45;n7</title>
<path fill="none" stroke="black" d="M-36.8323,-89.4553C-26.4798,-91.042 -13.7642,-92.9908 -3.40357,-94.5787"/>
</g>
<!-- n5&#45;&#45;n6 -->
<g id="edge15" class="edge"><title>n5&#45;&#45;n6</title>
<path fill="none" stroke="black" d="M-36.8075,-83.5258C-12.848,-79.8553 27.7205,-73.6404 51.7639,-69.957"/>
</g>
<!-- n4 -->
<g id="node7" class="node"><title>n4</title>
<ellipse fill="none" stroke="black" cx="94.2732" cy="-11.6616" rx="19.4965" ry="19.4965"/>
<text text-anchor="middle" x="94.2732" y="-7.96163" font-family="Times New Roman,serif" font-size="14.00">n4</text>
</g>
<!-- n4&#45;&#45;n9 -->
<g id="edge17" class="edge"><title>n4&#45;&#45;n9</title>
<path fill="none" stroke="black" d="M74.7539,-12.7621C37.8546,-14.8423 -41.7367,-19.3293 -78.6758,-21.4118"/>
</g>
<!-- n4&#45;&#45;n10 -->
<g id="edge16" class="edge"><title>n4&#45;&#45;n10</title>
<path fill="none" stroke="black" d="M74.8233,-14.6699C54.437,-17.8231 22.3807,-22.7812 0.447403,-26.1736"/>
</g>
<!-- n4&#45;&#45;n8 -->
<g id="edge18" class="edge"><title>n4&#45;&#45;n8</title>
<path fill="none" stroke="black" d="M77.2076,-2.19655C63.6438,5.32629 44.7511,15.8048 31.1217,23.364"/>
</g>
<!-- n4&#45;&#45;n7 -->
<g id="edge19" class="edge"><title>n4&#45;&#45;n7</title>
<path fill="none" stroke="black" d="M80.9928,-26.2315C66.5967,-42.0254 43.7528,-67.0873 29.3313,-82.9091"/>
</g>
<!-- n4&#45;&#45;n6 -->
<g id="edge20" class="edge"><title>n4&#45;&#45;n6</title>
<path fill="none" stroke="black" d="M86.7532,-29.7694C84.2414,-35.8175 81.4413,-42.5599 78.9224,-48.6254"/>
</g>
<!-- n4&#45;&#45;n5 -->
<g id="edge21" class="edge"><title>n4&#45;&#45;n5</title>
<path fill="none" stroke="black" d="M76.7212,-20.3921C47.8877,-34.7339 -9.19851,-63.1289 -38.2617,-77.585"/>
</g>
<!-- n3 -->
<g id="node8" class="node"><title>n3</title>
<ellipse fill="none" stroke="black" cx="27.751" cy="98.6851" rx="19.4965" ry="19.4965"/>
<text text-anchor="middle" x="27.751" y="102.385" font-family="Times New Roman,serif" font-size="14.00">n3</text>
</g>
<!-- n3&#45;&#45;n9 -->
<g id="edge23" class="edge"><title>n3&#45;&#45;n9</title>
<path fill="none" stroke="black" d="M13.2975,84.7819C-11.0071,61.4028 -59.7709,14.4958 -83.9618,-8.77405"/>
</g>
<!-- n3&#45;&#45;n10 -->
<g id="edge22" class="edge"><title>n3&#45;&#45;n10</title>
<path fill="none" stroke="black" d="M20.5149,80.5376C11.2968,57.4193 -4.63054,17.4749 -14.5909,-7.50475"/>
</g>
<!-- n3&#45;&#45;n8 -->
<g id="edge24" class="edge"><title>n3&#45;&#45;n8</title>
<path fill="none" stroke="black" d="M23.6417,79.3236C21.8417,70.8429 19.7335,60.9103 17.9314,52.4195"/>
</g>
<!-- n3&#45;&#45;n7 -->
<g id="edge25" class="edge"><title>n3&#45;&#45;n7</title>
<path fill="none" stroke="black" d="M26.5799,79.1519C24.3306,41.6344 19.4289,-40.1213 17.1696,-77.8049"/>
</g>
<!-- n3&#45;&#45;n6 -->
<g id="edge26" class="edge"><title>n3&#45;&#45;n6</title>
<path fill="none" stroke="black" d="M32.7474,79.6831C41.1268,47.8151 57.9166,-16.0384 66.3018,-47.9284"/>
</g>
<!-- n3&#45;&#45;n5 -->
<g id="edge27" class="edge"><title>n3&#45;&#45;n5</title>
<path fill="none" stroke="black" d="M19.5517,80.5924C3.46705,45.0999 -32.0475,-33.2668 -48.0592,-68.5983"/>
</g>
<!-- n3&#45;&#45;n4 -->
<g id="edge28" class="edge"><title>n3&#45;&#45;n4</title>
<path fill="none" stroke="black" d="M37.8543,81.9258C50.3575,61.1856 71.5279,26.0682 84.0748,5.25538"/>
</g>
<!-- n2 -->
<g id="node9" class="node"><title>n2</title>
<ellipse fill="none" stroke="black" cx="-87.8178" cy="42.2802" rx="19.4965" ry="19.4965"/>
<text text-anchor="middle" x="-87.8178" y="45.9802" font-family="Times New Roman,serif" font-size="14.00">n2</text>
</g>
<!-- n2&#45;&#45;n9 -->
<g id="edge30" class="edge"><title>n2&#45;&#45;n9</title>
<path fill="none" stroke="black" d="M-90.9468,22.8395C-92.2668,14.6385 -93.8002,5.11139 -95.1199,-3.08809"/>
</g>
<!-- n2&#45;&#45;n10 -->
<g id="edge29" class="edge"><title>n2&#45;&#45;n10</title>
<path fill="none" stroke="black" d="M-74.8047,27.6776C-64.6756,16.3114 -50.562,0.473915 -39.7031,-11.7113"/>
</g>
<!-- n2&#45;&#45;n8 -->
<g id="edge31" class="edge"><title>n2&#45;&#45;n8</title>
<path fill="none" stroke="black" d="M-68.2242,40.485C-50.2295,38.8362 -23.7059,36.4061 -5.73018,34.7591"/>
</g>
<!-- n2&#45;&#45;n7 -->
<g id="edge32" class="edge"><title>n2&#45;&#45;n7</title>
<path fill="none" stroke="black" d="M-76.112,26.5117C-56.1757,-0.343866 -15.8519,-54.6628 4.16346,-81.625"/>
</g>
<!-- n2&#45;&#45;n6 -->
<g id="edge33" class="edge"><title>n2&#45;&#45;n6</title>
<path fill="none" stroke="black" d="M-71.6844,31.2042C-41.1858,10.2661 24.5992,-34.8971 55.1307,-55.8578"/>
</g>
<!-- n2&#45;&#45;n5 -->
<g id="edge34" class="edge"><title>n2&#45;&#45;n5</title>
<path fill="none" stroke="black" d="M-83.1478,23.2795C-77.1639,-1.067 -66.8505,-43.0291 -60.8574,-67.4131"/>
</g>
<!-- n2&#45;&#45;n4 -->
<g id="edge35" class="edge"><title>n2&#45;&#45;n4</title>
<path fill="none" stroke="black" d="M-69.0167,36.7107C-34.0329,26.3472 40.6681,4.2181 75.5744,-6.12238"/>
</g>
<!-- n2&#45;&#45;n3 -->
<g id="edge36" class="edge"><title>n2&#45;&#45;n3</title>
<path fill="none" stroke="black" d="M-70.2654,50.8469C-48.5436,61.4485 -11.7643,79.3991 10.0334,90.0378"/>
</g>
<!-- n1 -->
<g id="node10" class="node"><title>n1</title>
<ellipse fill="none" stroke="black" cx="-44.1561" cy="89.2768" rx="19.4965" ry="19.4965"/>
<text text-anchor="middle" x="-44.1561" y="92.9768" font-family="Times New Roman,serif" font-size="14.00">n1</text>
</g>
<!-- n1&#45;&#45;n9 -->
<g id="edge38" class="edge"><title>n1&#45;&#45;n9</title>
<path fill="none" stroke="black" d="M-52.8467,71.3155C-62.9406,50.4539 -79.4931,16.2442 -89.5777,-4.59838"/>
</g>
<!-- n1&#45;&#45;n10 -->
<g id="edge37" class="edge"><title>n1&#45;&#45;n10</title>
<path fill="none" stroke="black" d="M-40.7934,69.8671C-37.206,49.16 -31.5192,16.3354 -27.6573,-5.95562"/>
</g>
<!-- n1&#45;&#45;n8 -->
<g id="edge39" class="edge"><title>n1&#45;&#45;n8</title>
<path fill="none" stroke="black" d="M-30.1258,75.6463C-21.1472,66.9236 -9.53206,55.6395 -0.500572,46.8654"/>
</g>
<!-- n1&#45;&#45;n7 -->
<g id="edge40" class="edge"><title>n1&#45;&#45;n7</title>
<path fill="none" stroke="black" d="M-38.1696,70.68C-26.6714,34.9613 -1.61501,-42.8747 9.93419,-78.7516"/>
</g>
<!-- n1&#45;&#45;n6 -->
<g id="edge41" class="edge"><title>n1&#45;&#45;n6</title>
<path fill="none" stroke="black" d="M-32.4495,73.4358C-10.3193,43.4901 37.4151,-21.1023 59.5692,-51.0803"/>
</g>
<!-- n1&#45;&#45;n5 -->
<g id="edge42" class="edge"><title>n1&#45;&#45;n5</title>
<path fill="none" stroke="black" d="M-45.4875,69.7949C-47.7965,36.0085 -52.5178,-33.0757 -54.8309,-66.9227"/>
</g>
<!-- n1&#45;&#45;n4 -->
<g id="edge43" class="edge"><title>n1&#45;&#45;n4</title>
<path fill="none" stroke="black" d="M-28.2765,77.6979C-1.71603,58.3307 51.4319,19.5769 78.1524,0.0931605"/>
</g>
<!-- n1&#45;&#45;n3 -->
<g id="edge44" class="edge"><title>n1&#45;&#45;n3</title>
<path fill="none" stroke="black" d="M-24.5072,91.8476C-14.361,93.1752 -2.01693,94.7903 8.12584,96.1173"/>
</g>
<!-- n1&#45;&#45;n2 -->
<g id="edge45" class="edge"><title>n1&#45;&#45;n2</title>
<path fill="none" stroke="black" d="M-57.4933,74.9209C-62.8099,69.1982 -68.9228,62.6185 -74.261,56.8725"/>
</g>
<!-- n0 -->
<g id="node11" class="node"><title>n0</title>
<ellipse fill="none" stroke="black" cx="86.7815" cy="51.8502" rx="19.4965" ry="19.4965"/>
<text text-anchor="middle" x="86.7815" y="55.5502" font-family="Times New Roman,serif" font-size="14.00">n0</text>
</g>
<!-- n0&#45;&#45;n9 -->
<g id="edge47" class="edge"><title>n0&#45;&#45;n9</title>
<path fill="none" stroke="black" d="M68.3638,44.4479C32.8976,30.1935 -44.4962,-0.91205 -79.9036,-15.1427"/>
</g>
<!-- n0&#45;&#45;n10 -->
<g id="edge46" class="edge"><title>n0&#45;&#45;n10</title>
<path fill="none" stroke="black" d="M70.979,40.1403C51.2034,25.4863 17.3434,0.39539 -4.02033,-15.4355"/>
</g>
<!-- n0&#45;&#45;n8 -->
<g id="edge48" class="edge"><title>n0&#45;&#45;n8</title>
<path fill="none" stroke="black" d="M67.6073,46.8894C56.8806,44.1143 43.5552,40.6667 32.8493,37.8969"/>
</g>
<!-- n0&#45;&#45;n7 -->
<g id="edge49" class="edge"><title>n0&#45;&#45;n7</title>
<path fill="none" stroke="black" d="M78.3822,34.1253C64.757,5.37181 37.9923,-51.11 24.374,-79.8486"/>
</g>
<!-- n0&#45;&#45;n6 -->
<g id="edge50" class="edge"><title>n0&#45;&#45;n6</title>
<path fill="none" stroke="black" d="M84.2607,32.4963C81.3831,10.4022 76.7036,-25.527 73.8264,-47.6176"/>
</g>
<!-- n0&#45;&#45;n5 -->
<g id="edge51" class="edge"><title>n0&#45;&#45;n5</title>
<path fill="none" stroke="black" d="M72.5523,38.0796C45.1517,11.5623 -14.6415,-46.3036 -41.9966,-72.777"/>
</g>
<!-- n0&#45;&#45;n4 -->
<g id="edge52" class="edge"><title>n0&#45;&#45;n4</title>
<path fill="none" stroke="black" d="M89.0699,32.4494C89.9822,24.7157 91.0311,15.8237 91.947,8.05861"/>
</g>
<!-- n0&#45;&#45;n3 -->
<g id="edge53" class="edge"><title>n0&#45;&#45;n3</title>
<path fill="none" stroke="black" d="M71.2719,64.1555C62.6637,70.9853 51.9863,79.4567 43.3619,86.2993"/>
</g>
<!-- n0&#45;&#45;n2 -->
<g id="edge54" class="edge"><title>n0&#45;&#45;n2</title>
<path fill="none" stroke="black" d="M67.0921,50.771C33.4698,48.9281 -34.6273,45.1956 -68.2004,43.3555"/>
</g>
<!-- n0&#45;&#45;n1 -->
<g id="edge55" class="edge"><title>n0&#45;&#45;n1</title>
<path fill="none" stroke="black" d="M68.0213,57.2125C43.2715,64.2869 -0.0612555,76.6729 -25.005,83.8027"/>
</g>
</g>
</svg>
