<?xml version="1.0" standalone="yes"?>
<!-- SVG graphic -->
<svg xmlns='http://www.w3.org/2000/svg' xmlns:xlink='http://www.w3.org/1999/xlink'
width="70px" height="70px" preserveAspectRatio="xMinYMin meet" viewBox="0 0 70 70" version="1.1">
<rect x="5" y="0" width="2.5" height="2.5" fill="rgb(226,0,28)" tooltip="enable"><title>(1,0 2433)</title></rect><rect x="10" y="0" width="2.5" height="2.5" fill="rgb(139,0,115)" tooltip="enable"><title>(2,0 1500)</title></rect><rect x="15" y="0" width="2.5" height="2.5" fill="rgb(101,0,153)" tooltip="enable"><title>(3,0 1091)</title></rect><rect x="20" y="0" width="2.5" height="2.5" fill="rgb(86,0,168)" tooltip="enable"><title>(4,0 925)</title></rect><rect x="25" y="0" width="2.5" height="2.5" fill="rgb(53,0,201)" tooltip="enable"><title>(5,0 572)</title></rect><rect x="30" y="0" width="2.5" height="2.5" fill="rgb(44,0,210)" tooltip="enable"><title>(6,0 476)</title></rect><rect x="35" y="0" width="2.5" height="2.5" fill="rgb(46,0,208)" tooltip="enable"><title>(7,0 495)</title></rect><rect x="40" y="0" width="2.5" height="2.5" fill="rgb(36,0,218)" tooltip="enable"><title>(8,0 388)</title></rect><rect x="45" y="0" width="2.5" height="2.5" fill="rgb(15,0,239)" tooltip="enable"><title>(9,0 171)</title></rect><rect x="50" y="0" width="2.5" height="2.5" fill="rgb(30,0,224)" tooltip="enable"><title>(10,0 329)</title></rect><rect x="10" y="5" width="2.5" height="2.5" fill="rgb(255,0,0)" tooltip="enable"><title>(2,1 2736)</title></rect><rect x="15" y="5" width="2.5" height="2.5" fill="rgb(185,0,69)" tooltip="enable"><title>(3,1 1990)</title></rect><rect x="20" y="5" width="2.5" height="2.5" fill="rgb(135,0,119)" tooltip="enable"><title>(4,1 1453)</title></rect><rect x="25" y="5" width="2.5" height="2.5" fill="rgb(86,0,168)" tooltip="enable"><title>(5,1 925)</title></rect><rect x="30" y="5" width="2.5" height="2.5" fill="rgb(71,0,183)" tooltip="enable"><title>(6,1 764)</title></rect><rect x="35" y="5" width="2.5" height="2.5" fill="rgb(64,0,190)" tooltip="enable"><title>(7,1 696)</title></rect><rect x="40" y="5" width="2.5" height="2.5" fill="rgb(45,0,209)" tooltip="enable"><title>(8,1 492)</title></rect><rect x="45" y="5" width="2.5" height="2.5" fill="rgb(14,0,240)" tooltip="enable"><title>(9,1 151)</title></rect><rect x="50" y="5" width="2.5" height="2.5" fill="rgb(27,0,227)" tooltip="enable"><title>(10,1 299)</title></rect><rect x="15" y="10" width="2.5" height="2.5" fill="rgb(243,0,11)" tooltip="enable"><title>(3,2 2610)</title></rect><rect x="20" y="10" width="2.5" height="2.5" fill="rgb(180,0,74)" tooltip="enable"><title>(4,2 1932)</title></rect><rect x="25" y="10" width="2.5" height="2.5" fill="rgb(113,0,141)" tooltip="enable"><title>(5,2 1214)</title></rect><rect x="30" y="10" width="2.5" height="2.5" fill="rgb(87,0,167)" tooltip="enable"><title>(6,2 942)</title></rect><rect x="35" y="10" width="2.5" height="2.5" fill="rgb(75,0,179)" tooltip="enable"><title>(7,2 810)</title></rect><rect x="40" y="10" width="2.5" height="2.5" fill="rgb(52,0,202)" tooltip="enable"><title>(8,2 564)</title></rect><rect x="45" y="10" width="2.5" height="2.5" fill="rgb(13,0,241)" tooltip="enable"><title>(9,2 146)</title></rect><rect x="50" y="10" width="2.5" height="2.5" fill="rgb(25,0,229)" tooltip="enable"><title>(10,2 271)</title></rect><rect x="20" y="15" width="2.5" height="2.5" fill="rgb(213,0,41)" tooltip="enable"><title>(4,3 2295)</title></rect><rect x="25" y="15" width="2.5" height="2.5" fill="rgb(132,0,122)" tooltip="enable"><title>(5,3 1422)</title></rect><rect x="30" y="15" width="2.5" height="2.5" fill="rgb(106,0,148)" tooltip="enable"><title>(6,3 1144)</title></rect><rect x="35" y="15" width="2.5" height="2.5" fill="rgb(81,0,173)" tooltip="enable"><title>(7,3 876)</title></rect><rect x="40" y="15" width="2.5" height="2.5" fill="rgb(58,0,196)" tooltip="enable"><title>(8,3 627)</title></rect><rect x="45" y="15" width="2.5" height="2.5" fill="rgb(15,0,239)" tooltip="enable"><title>(9,3 171)</title></rect><rect x="50" y="15" width="2.5" height="2.5" fill="rgb(23,0,231)" tooltip="enable"><title>(10,3 254)</title></rect><rect x="25" y="20" width="2.5" height="2.5" fill="rgb(187,0,67)" tooltip="enable"><title>(5,4 2017)</title></rect><rect x="30" y="20" width="2.5" height="2.5" fill="rgb(133,0,121)" tooltip="enable"><title>(6,4 1436)</title></rect><rect x="35" y="20" width="2.5" height="2.5" fill="rgb(109,0,145)" tooltip="enable"><title>(7,4 1178)</title></rect><rect x="40" y="20" width="2.5" height="2.5" fill="rgb(67,0,187)" tooltip="enable"><title>(8,4 724)</title></rect><rect x="45" y="20" width="2.5" height="2.5" fill="rgb(16,0,238)" tooltip="enable"><title>(9,4 173)</title></rect><rect x="50" y="20" width="2.5" height="2.5" fill="rgb(23,0,231)" tooltip="enable"><title>(10,4 248)</title></rect><rect x="30" y="25" width="2.5" height="2.5" fill="rgb(180,0,74)" tooltip="enable"><title>(6,5 1933)</title></rect><rect x="35" y="25" width="2.5" height="2.5" fill="rgb(132,0,122)" tooltip="enable"><title>(7,5 1421)</title></rect><rect x="40" y="25" width="2.5" height="2.5" fill="rgb(90,0,164)" tooltip="enable"><title>(8,5 968)</title></rect><rect x="45" y="25" width="2.5" height="2.5" fill="rgb(23,0,231)" tooltip="enable"><title>(9,5 251)</title></rect><rect x="50" y="25" width="2.5" height="2.5" fill="rgb(24,0,230)" tooltip="enable"><title>(10,5 267)</title></rect><rect x="35" y="30" width="2.5" height="2.5" fill="rgb(185,0,69)" tooltip="enable"><title>(7,6 1988)</title></rect><rect x="40" y="30" width="2.5" height="2.5" fill="rgb(117,0,137)" tooltip="enable"><title>(8,6 1260)</title></rect><rect x="45" y="30" width="2.5" height="2.5" fill="rgb(28,0,226)" tooltip="enable"><title>(9,6 311)</title></rect><rect x="50" y="30" width="2.5" height="2.5" fill="rgb(30,0,224)" tooltip="enable"><title>(10,6 324)</title></rect><rect x="40" y="35" width="2.5" height="2.5" fill="rgb(179,0,75)" tooltip="enable"><title>(8,7 1924)</title></rect><rect x="45" y="35" width="2.5" height="2.5" fill="rgb(43,0,211)" tooltip="enable"><title>(9,7 462)</title></rect><rect x="50" y="35" width="2.5" height="2.5" fill="rgb(53,0,201)" tooltip="enable"><title>(10,7 571)</title></rect><rect x="45" y="40" width="2.5" height="2.5" fill="rgb(65,0,189)" tooltip="enable"><title>(9,8 708)</title></rect><rect x="50" y="40" width="2.5" height="2.5" fill="rgb(76,0,178)" tooltip="enable"><title>(10,8 822)</title></rect><rect x="50" y="45" width="2.5" height="2.5" fill="rgb(57,0,197)" tooltip="enable"><title>(10,9 615)</title></rect><text x="60" y="5" font-size="5" fill="black">0</text>
<text x="60" y="50" font-size="5" fill="black">11</text>
<polyline points="60,10,60,45" stroke="black" stroke-width="1" fill="none"/>
<text x="5" y="60" font-size="5" fill="black">0</text>
<text x="50" y="60" font-size="5" fill="black">11</text>
<polyline points="10,60,45,60" stroke="black" stroke-width="1" fill="none"/>
</svg>