<?xml version="1.0" standalone="yes"?>
<!-- SVG graphic -->
<svg xmlns='http://www.w3.org/2000/svg' xmlns:xlink='http://www.w3.org/1999/xlink'
width="70px" height="70px" preserveAspectRatio="xMinYMin meet" viewBox="0 0 70 70" version="1.1">
<rect x="5" y="0" width="2.5" height="2.5" fill="rgb(255,0,0)" tooltip="enable"><title>(1,0 187)</title></rect><rect x="10" y="0" width="2.5" height="2.5" fill="rgb(92,0,162)" tooltip="enable"><title>(2,0 68)</title></rect><rect x="15" y="0" width="2.5" height="2.5" fill="rgb(27,0,227)" tooltip="enable"><title>(3,0 20)</title></rect><rect x="20" y="0" width="2.5" height="2.5" fill="rgb(12,0,242)" tooltip="enable"><title>(4,0 9)</title></rect><rect x="25" y="0" width="2.5" height="2.5" fill="rgb(129,0,125)" tooltip="enable"><title>(5,0 95)</title></rect><rect x="30" y="0" width="2.5" height="2.5" fill="rgb(21,0,233)" tooltip="enable"><title>(6,0 16)</title></rect><rect x="35" y="0" width="2.5" height="2.5" fill="rgb(154,0,100)" tooltip="enable"><title>(7,0 113)</title></rect><rect x="40" y="0" width="2.5" height="2.5" fill="rgb(32,0,222)" tooltip="enable"><title>(8,0 24)</title></rect><rect x="45" y="0" width="2.5" height="2.5" fill="rgb(106,0,148)" tooltip="enable"><title>(9,0 78)</title></rect><rect x="50" y="0" width="2.5" height="2.5" fill="rgb(84,0,170)" tooltip="enable"><title>(10,0 62)</title></rect><rect x="10" y="5" width="2.5" height="2.5" fill="rgb(173,0,81)" tooltip="enable"><title>(2,1 127)</title></rect><rect x="15" y="5" width="2.5" height="2.5" fill="rgb(31,0,223)" tooltip="enable"><title>(3,1 23)</title></rect><rect x="20" y="5" width="2.5" height="2.5" fill="rgb(21,0,233)" tooltip="enable"><title>(4,1 16)</title></rect><rect x="25" y="5" width="2.5" height="2.5" fill="rgb(75,0,179)" tooltip="enable"><title>(5,1 55)</title></rect><rect x="30" y="5" width="2.5" height="2.5" fill="rgb(10,0,244)" tooltip="enable"><title>(6,1 8)</title></rect><rect x="35" y="5" width="2.5" height="2.5" fill="rgb(223,0,31)" tooltip="enable"><title>(7,1 164)</title></rect><rect x="40" y="5" width="2.5" height="2.5" fill="rgb(70,0,184)" tooltip="enable"><title>(8,1 52)</title></rect><rect x="45" y="5" width="2.5" height="2.5" fill="rgb(136,0,118)" tooltip="enable"><title>(9,1 100)</title></rect><rect x="50" y="5" width="2.5" height="2.5" fill="rgb(76,0,178)" tooltip="enable"><title>(10,1 56)</title></rect><rect x="15" y="10" width="2.5" height="2.5" fill="rgb(114,0,140)" tooltip="enable"><title>(3,2 84)</title></rect><rect x="20" y="10" width="2.5" height="2.5" fill="rgb(28,0,226)" tooltip="enable"><title>(4,2 21)</title></rect><rect x="25" y="10" width="2.5" height="2.5" fill="rgb(50,0,204)" tooltip="enable"><title>(5,2 37)</title></rect><rect x="30" y="10" width="2.5" height="2.5" fill="rgb(2,0,252)" tooltip="enable"><title>(6,2 2)</title></rect><rect x="35" y="10" width="2.5" height="2.5" fill="rgb(118,0,136)" tooltip="enable"><title>(7,2 87)</title></rect><rect x="40" y="10" width="2.5" height="2.5" fill="rgb(59,0,195)" tooltip="enable"><title>(8,2 44)</title></rect><rect x="45" y="10" width="2.5" height="2.5" fill="rgb(119,0,135)" tooltip="enable"><title>(9,2 88)</title></rect><rect x="50" y="10" width="2.5" height="2.5" fill="rgb(42,0,212)" tooltip="enable"><title>(10,2 31)</title></rect><rect x="20" y="15" width="2.5" height="2.5" fill="rgb(92,0,162)" tooltip="enable"><title>(4,3 68)</title></rect><rect x="25" y="15" width="2.5" height="2.5" fill="rgb(34,0,220)" tooltip="enable"><title>(5,3 25)</title></rect><rect x="30" y="15" width="2.5" height="2.5" fill="rgb(8,0,246)" tooltip="enable"><title>(6,3 6)</title></rect><rect x="35" y="15" width="2.5" height="2.5" fill="rgb(46,0,208)" tooltip="enable"><title>(7,3 34)</title></rect><rect x="40" y="15" width="2.5" height="2.5" fill="rgb(20,0,234)" tooltip="enable"><title>(8,3 15)</title></rect><rect x="45" y="15" width="2.5" height="2.5" fill="rgb(38,0,216)" tooltip="enable"><title>(9,3 28)</title></rect><rect x="50" y="15" width="2.5" height="2.5" fill="rgb(17,0,237)" tooltip="enable"><title>(10,3 13)</title></rect><rect x="25" y="20" width="2.5" height="2.5" fill="rgb(17,0,237)" tooltip="enable"><title>(5,4 13)</title></rect><rect x="30" y="20" width="2.5" height="2.5" fill="rgb(13,0,241)" tooltip="enable"><title>(6,4 10)</title></rect><rect x="35" y="20" width="2.5" height="2.5" fill="rgb(24,0,230)" tooltip="enable"><title>(7,4 18)</title></rect><rect x="40" y="20" width="2.5" height="2.5" fill="rgb(28,0,226)" tooltip="enable"><title>(8,4 21)</title></rect><rect x="45" y="20" width="2.5" height="2.5" fill="rgb(24,0,230)" tooltip="enable"><title>(9,4 18)</title></rect><rect x="50" y="20" width="2.5" height="2.5" fill="rgb(21,0,233)" tooltip="enable"><title>(10,4 16)</title></rect><rect x="30" y="25" width="2.5" height="2.5" fill="rgb(55,0,199)" tooltip="enable"><title>(6,5 41)</title></rect><rect x="35" y="25" width="2.5" height="2.5" fill="rgb(73,0,181)" tooltip="enable"><title>(7,5 54)</title></rect><rect x="40" y="25" width="2.5" height="2.5" fill="rgb(25,0,229)" tooltip="enable"><title>(8,5 19)</title></rect><rect x="45" y="25" width="2.5" height="2.5" fill="rgb(50,0,204)" tooltip="enable"><title>(9,5 37)</title></rect><rect x="50" y="25" width="2.5" height="2.5" fill="rgb(35,0,219)" tooltip="enable"><title>(10,5 26)</title></rect><rect x="35" y="30" width="2.5" height="2.5" fill="rgb(31,0,223)" tooltip="enable"><title>(7,6 23)</title></rect><rect x="40" y="30" width="2.5" height="2.5" fill="rgb(17,0,237)" tooltip="enable"><title>(8,6 13)</title></rect><rect x="45" y="30" width="2.5" height="2.5" fill="rgb(20,0,234)" tooltip="enable"><title>(9,6 15)</title></rect><rect x="50" y="30" width="2.5" height="2.5" fill="rgb(12,0,242)" tooltip="enable"><title>(10,6 9)</title></rect><rect x="40" y="35" width="2.5" height="2.5" fill="rgb(139,0,115)" tooltip="enable"><title>(8,7 102)</title></rect><rect x="45" y="35" width="2.5" height="2.5" fill="rgb(95,0,159)" tooltip="enable"><title>(9,7 70)</title></rect><rect x="50" y="35" width="2.5" height="2.5" fill="rgb(50,0,204)" tooltip="enable"><title>(10,7 37)</title></rect><rect x="45" y="40" width="2.5" height="2.5" fill="rgb(43,0,211)" tooltip="enable"><title>(9,8 32)</title></rect><rect x="50" y="40" width="2.5" height="2.5" fill="rgb(36,0,218)" tooltip="enable"><title>(10,8 27)</title></rect><rect x="50" y="45" width="2.5" height="2.5" fill="rgb(155,0,99)" tooltip="enable"><title>(10,9 114)</title></rect><text x="60" y="5" font-size="5" fill="black">0</text>
<text x="60" y="50" font-size="5" fill="black">11</text>
<polyline points="60,10,60,45" stroke="black" stroke-width="1" fill="none"/>
<text x="5" y="60" font-size="5" fill="black">0</text>
<text x="50" y="60" font-size="5" fill="black">11</text>
<polyline points="10,60,45,60" stroke="black" stroke-width="1" fill="none"/>
</svg>