<?xml version="1.0" standalone="yes"?>
<!-- SVG graphic -->
<svg xmlns='http://www.w3.org/2000/svg' xmlns:xlink='http://www.w3.org/1999/xlink'
 version="1.1">
<rect x="0" y="0" width="6" height="200" stroke="black" stroke-width="1" fill="blue" tooltip="enable"><title>(0,10077)</title></rect><rect x="6" y="96.2588" width="6" height="103.741" stroke="black" stroke-width="1" fill="blue" tooltip="enable"><title>(0.0397023,5227)</title></rect><rect x="12" y="116.205" width="6" height="83.7948" stroke="black" stroke-width="1" fill="blue" tooltip="enable"><title>(0.0794047,4222)</title></rect><rect x="18" y="126.943" width="6" height="73.0575" stroke="black" stroke-width="1" fill="blue" tooltip="enable"><title>(0.119107,3681)</title></rect><rect x="24" y="140.955" width="6" height="59.0454" stroke="black" stroke-width="1" fill="blue" tooltip="enable"><title>(0.158809,2975)</title></rect><rect x="30" y="147.504" width="6" height="52.4958" stroke="black" stroke-width="1" fill="blue" tooltip="enable"><title>(0.198512,2645)</title></rect><rect x="36" y="156.892" width="6" height="43.1081" stroke="black" stroke-width="1" fill="blue" tooltip="enable"><title>(0.238214,2172)</title></rect><rect x="42" y="163.62" width="6" height="36.3799" stroke="black" stroke-width="1" fill="blue" tooltip="enable"><title>(0.277916,1833)</title></rect><rect x="48" y="168.403" width="6" height="31.5967" stroke="black" stroke-width="1" fill="blue" tooltip="enable"><title>(0.317619,1592)</title></rect><rect x="54" y="173.802" width="6" height="26.1983" stroke="black" stroke-width="1" fill="blue" tooltip="enable"><title>(0.357321,1320)</title></rect><rect x="60" y="177.593" width="6" height="22.4075" stroke="black" stroke-width="1" fill="blue" tooltip="enable"><title>(0.397023,1129)</title></rect><rect x="66" y="182.554" width="6" height="17.4457" stroke="black" stroke-width="1" fill="blue" tooltip="enable"><title>(0.436726,879)</title></rect><rect x="72" y="183.884" width="6" height="16.1159" stroke="black" stroke-width="1" fill="blue" tooltip="enable"><title>(0.476428,812)</title></rect><rect x="78" y="186.802" width="6" height="13.1984" stroke="black" stroke-width="1" fill="blue" tooltip="enable"><title>(0.51613,665)</title></rect><rect x="84" y="188.528" width="6" height="11.4717" stroke="black" stroke-width="1" fill="blue" tooltip="enable"><title>(0.555833,578)</title></rect><rect x="90" y="189.818" width="6" height="10.1816" stroke="black" stroke-width="1" fill="blue" tooltip="enable"><title>(0.595535,513)</title></rect><rect x="96" y="190.791" width="6" height="9.20909" stroke="black" stroke-width="1" fill="blue" tooltip="enable"><title>(0.635237,464)</title></rect><rect x="102" y="192.399" width="6" height="7.60147" stroke="black" stroke-width="1" fill="blue" tooltip="enable"><title>(0.67494,383)</title></rect><rect x="108" y="192.795" width="6" height="7.20453" stroke="black" stroke-width="1" fill="blue" tooltip="enable"><title>(0.714642,363)</title></rect><rect x="114" y="193.55" width="6" height="6.45033" stroke="black" stroke-width="1" fill="blue" tooltip="enable"><title>(0.754344,325)</title></rect><rect x="120" y="195.018" width="6" height="4.98164" stroke="black" stroke-width="1" fill="blue" tooltip="enable"><title>(0.794047,251)</title></rect><rect x="126" y="195.415" width="6" height="4.5847" stroke="black" stroke-width="1" fill="blue" tooltip="enable"><title>(0.833749,231)</title></rect><rect x="132" y="194.899" width="6" height="5.10072" stroke="black" stroke-width="1" fill="blue" tooltip="enable"><title>(0.873452,257)</title></rect><rect x="138" y="196.408" width="6" height="3.59234" stroke="black" stroke-width="1" fill="blue" tooltip="enable"><title>(0.913154,181)</title></rect><rect x="144" y="195.911" width="6" height="4.08852" stroke="black" stroke-width="1" fill="blue" tooltip="enable"><title>(0.952856,206)</title></rect><rect x="150" y="195.872" width="6" height="4.12821" stroke="black" stroke-width="1" fill="blue" tooltip="enable"><title>(0.992559,208)</title></rect><rect x="156" y="197.281" width="6" height="2.71906" stroke="black" stroke-width="1" fill="blue" tooltip="enable"><title>(1.03226,137)</title></rect><rect x="162" y="197.4" width="6" height="2.59998" stroke="black" stroke-width="1" fill="blue" tooltip="enable"><title>(1.07196,131)</title></rect><rect x="168" y="197.579" width="6" height="2.42136" stroke="black" stroke-width="1" fill="blue" tooltip="enable"><title>(1.11167,122)</title></rect><rect x="174" y="197.777" width="6" height="2.22288" stroke="black" stroke-width="1" fill="blue" tooltip="enable"><title>(1.15137,112)</title></rect><rect x="180" y="197.757" width="6" height="2.24273" stroke="black" stroke-width="1" fill="blue" tooltip="enable"><title>(1.19107,113)</title></rect><rect x="186" y="198.273" width="6" height="1.7267" stroke="black" stroke-width="1" fill="blue" tooltip="enable"><title>(1.23077,87)</title></rect><rect x="192" y="198.253" width="6" height="1.74655" stroke="black" stroke-width="1" fill="blue" tooltip="enable"><title>(1.27047,88)</title></rect><rect x="198" y="198.253" width="6" height="1.74655" stroke="black" stroke-width="1" fill="blue" tooltip="enable"><title>(1.31018,88)</title></rect><rect x="204" y="198.71" width="6" height="1.29007" stroke="black" stroke-width="1" fill="blue" tooltip="enable"><title>(1.34988,65)</title></rect><rect x="210" y="198.869" width="6" height="1.13129" stroke="black" stroke-width="1" fill="blue" tooltip="enable"><title>(1.38958,57)</title></rect><rect x="216" y="198.531" width="6" height="1.46869" stroke="black" stroke-width="1" fill="blue" tooltip="enable"><title>(1.42928,74)</title></rect><rect x="222" y="198.948" width="6" height="1.0519" stroke="black" stroke-width="1" fill="blue" tooltip="enable"><title>(1.46899,53)</title></rect><rect x="228" y="199.008" width="6" height="0.992359" stroke="black" stroke-width="1" fill="blue" tooltip="enable"><title>(1.50869,50)</title></rect><rect x="234" y="198.948" width="6" height="1.0519" stroke="black" stroke-width="1" fill="blue" tooltip="enable"><title>(1.54839,53)</title></rect><rect x="240" y="199.246" width="6" height="0.754193" stroke="black" stroke-width="1" fill="blue" tooltip="enable"><title>(1.58809,38)</title></rect><rect x="246" y="199.266" width="6" height="0.734346" stroke="black" stroke-width="1" fill="blue" tooltip="enable"><title>(1.6278,37)</title></rect><rect x="252" y="198.988" width="6" height="1.01221" stroke="black" stroke-width="1" fill="blue" tooltip="enable"><title>(1.6675,51)</title></rect><rect x="258" y="199.266" width="6" height="0.734346" stroke="black" stroke-width="1" fill="blue" tooltip="enable"><title>(1.7072,37)</title></rect><rect x="264" y="199.405" width="6" height="0.595415" stroke="black" stroke-width="1" fill="blue" tooltip="enable"><title>(1.7469,30)</title></rect><rect x="270" y="199.325" width="6" height="0.674804" stroke="black" stroke-width="1" fill="blue" tooltip="enable"><title>(1.78661,34)</title></rect><rect x="276" y="199.444" width="6" height="0.555721" stroke="black" stroke-width="1" fill="blue" tooltip="enable"><title>(1.82631,28)</title></rect><rect x="282" y="199.444" width="6" height="0.555721" stroke="black" stroke-width="1" fill="blue" tooltip="enable"><title>(1.86601,28)</title></rect><rect x="288" y="199.583" width="6" height="0.416791" stroke="black" stroke-width="1" fill="blue" tooltip="enable"><title>(1.90571,21)</title></rect><rect x="294" y="199.682" width="6" height="0.317555" stroke="black" stroke-width="1" fill="blue" tooltip="enable"><title>(1.94541,16)</title></rect><rect x="300" y="199.643" width="6" height="0.357249" stroke="black" stroke-width="1" fill="blue" tooltip="enable"><title>(1.98512,18)</title></rect><rect x="306" y="199.623" width="6" height="0.377096" stroke="black" stroke-width="1" fill="blue" tooltip="enable"><title>(2.02482,19)</title></rect><rect x="312" y="199.603" width="6" height="0.396944" stroke="black" stroke-width="1" fill="blue" tooltip="enable"><title>(2.06452,20)</title></rect><rect x="318" y="199.742" width="6" height="0.258013" stroke="black" stroke-width="1" fill="blue" tooltip="enable"><title>(2.10422,13)</title></rect><rect x="324" y="199.563" width="6" height="0.436638" stroke="black" stroke-width="1" fill="blue" tooltip="enable"><title>(2.14393,22)</title></rect><rect x="330" y="199.762" width="6" height="0.238166" stroke="black" stroke-width="1" fill="blue" tooltip="enable"><title>(2.18363,12)</title></rect><rect x="336" y="199.722" width="6" height="0.27786" stroke="black" stroke-width="1" fill="blue" tooltip="enable"><title>(2.22333,14)</title></rect><rect x="342" y="199.762" width="6" height="0.238166" stroke="black" stroke-width="1" fill="blue" tooltip="enable"><title>(2.26303,12)</title></rect><rect x="348" y="199.802" width="6" height="0.198472" stroke="black" stroke-width="1" fill="blue" tooltip="enable"><title>(2.30274,10)</title></rect><rect x="354" y="199.841" width="6" height="0.158777" stroke="black" stroke-width="1" fill="blue" tooltip="enable"><title>(2.34244,8)</title></rect><rect x="360" y="199.722" width="6" height="0.27786" stroke="black" stroke-width="1" fill="blue" tooltip="enable"><title>(2.38214,14)</title></rect><rect x="366" y="199.802" width="6" height="0.198472" stroke="black" stroke-width="1" fill="blue" tooltip="enable"><title>(2.42184,10)</title></rect><rect x="372" y="199.663" width="6" height="0.337402" stroke="black" stroke-width="1" fill="blue" tooltip="enable"><title>(2.46155,17)</title></rect><rect x="378" y="199.702" width="6" height="0.297708" stroke="black" stroke-width="1" fill="blue" tooltip="enable"><title>(2.50125,15)</title></rect><rect x="384" y="199.742" width="6" height="0.258013" stroke="black" stroke-width="1" fill="blue" tooltip="enable"><title>(2.54095,13)</title></rect><rect x="390" y="199.782" width="6" height="0.218319" stroke="black" stroke-width="1" fill="blue" tooltip="enable"><title>(2.58065,11)</title></rect><rect x="396" y="199.821" width="6" height="0.178625" stroke="black" stroke-width="1" fill="blue" tooltip="enable"><title>(2.62035,9)</title></rect><rect x="402" y="199.702" width="6" height="0.297708" stroke="black" stroke-width="1" fill="blue" tooltip="enable"><title>(2.66006,15)</title></rect><rect x="408" y="199.881" width="6" height="0.119083" stroke="black" stroke-width="1" fill="blue" tooltip="enable"><title>(2.69976,6)</title></rect><rect x="414" y="199.861" width="6" height="0.13893" stroke="black" stroke-width="1" fill="blue" tooltip="enable"><title>(2.73946,7)</title></rect><rect x="420" y="199.841" width="6" height="0.158777" stroke="black" stroke-width="1" fill="blue" tooltip="enable"><title>(2.77916,8)</title></rect><rect x="426" y="199.782" width="6" height="0.218319" stroke="black" stroke-width="1" fill="blue" tooltip="enable"><title>(2.81887,11)</title></rect><rect x="432" y="199.881" width="6" height="0.119083" stroke="black" stroke-width="1" fill="blue" tooltip="enable"><title>(2.85857,6)</title></rect><rect x="438" y="199.901" width="6" height="0.0992359" stroke="black" stroke-width="1" fill="blue" tooltip="enable"><title>(2.89827,5)</title></rect><rect x="444" y="199.901" width="6" height="0.0992359" stroke="black" stroke-width="1" fill="blue" tooltip="enable"><title>(2.93797,5)</title></rect><rect x="450" y="199.901" width="6" height="0.0992359" stroke="black" stroke-width="1" fill="blue" tooltip="enable"><title>(2.97768,5)</title></rect><rect x="456" y="199.921" width="6" height="0.0793887" stroke="black" stroke-width="1" fill="blue" tooltip="enable"><title>(3.01738,4)</title></rect><rect x="462" y="199.921" width="6" height="0.0793887" stroke="black" stroke-width="1" fill="blue" tooltip="enable"><title>(3.05708,4)</title></rect><rect x="468" y="199.881" width="6" height="0.119083" stroke="black" stroke-width="1" fill="blue" tooltip="enable"><title>(3.09678,6)</title></rect><rect x="474" y="199.921" width="6" height="0.0793887" stroke="black" stroke-width="1" fill="blue" tooltip="enable"><title>(3.13649,4)</title></rect><rect x="480" y="199.98" width="6" height="0.0198472" stroke="black" stroke-width="1" fill="blue" tooltip="enable"><title>(3.17619,1)</title></rect><rect x="486" y="199.94" width="6" height="0.0595415" stroke="black" stroke-width="1" fill="blue" tooltip="enable"><title>(3.21589,3)</title></rect><rect x="492" y="199.94" width="6" height="0.0595415" stroke="black" stroke-width="1" fill="blue" tooltip="enable"><title>(3.25559,3)</title></rect><rect x="498" y="199.921" width="6" height="0.0793887" stroke="black" stroke-width="1" fill="blue" tooltip="enable"><title>(3.29529,4)</title></rect><rect x="504" y="199.921" width="6" height="0.0793887" stroke="black" stroke-width="1" fill="blue" tooltip="enable"><title>(3.335,4)</title></rect><rect x="510" y="199.94" width="6" height="0.0595415" stroke="black" stroke-width="1" fill="blue" tooltip="enable"><title>(3.3747,3)</title></rect><rect x="516" y="199.98" width="6" height="0.0198472" stroke="black" stroke-width="1" fill="blue" tooltip="enable"><title>(3.4144,1)</title></rect><rect x="522" y="199.96" width="6" height="0.0396944" stroke="black" stroke-width="1" fill="blue" tooltip="enable"><title>(3.4541,2)</title></rect><rect x="528" y="199.94" width="6" height="0.0595415" stroke="black" stroke-width="1" fill="blue" tooltip="enable"><title>(3.49381,3)</title></rect><rect x="534" y="199.901" width="6" height="0.0992359" stroke="black" stroke-width="1" fill="blue" tooltip="enable"><title>(3.53351,5)</title></rect><rect x="540" y="199.94" width="6" height="0.0595415" stroke="black" stroke-width="1" fill="blue" tooltip="enable"><title>(3.57321,3)</title></rect><rect x="546" y="199.96" width="6" height="0.0396944" stroke="black" stroke-width="1" fill="blue" tooltip="enable"><title>(3.61291,2)</title></rect><rect x="552" y="200" width="6" height="0" stroke="black" stroke-width="1" fill="blue" tooltip="enable"><title>(3.65262,0)</title></rect><rect x="558" y="199.94" width="6" height="0.0595415" stroke="black" stroke-width="1" fill="blue" tooltip="enable"><title>(3.69232,3)</title></rect><rect x="564" y="199.96" width="6" height="0.0396944" stroke="black" stroke-width="1" fill="blue" tooltip="enable"><title>(3.73202,2)</title></rect><rect x="570" y="199.96" width="6" height="0.0396944" stroke="black" stroke-width="1" fill="blue" tooltip="enable"><title>(3.77172,2)</title></rect><rect x="576" y="199.98" width="6" height="0.0198472" stroke="black" stroke-width="1" fill="blue" tooltip="enable"><title>(3.81142,1)</title></rect><rect x="582" y="199.96" width="6" height="0.0396944" stroke="black" stroke-width="1" fill="blue" tooltip="enable"><title>(3.85113,2)</title></rect><rect x="588" y="199.921" width="6" height="0.0793887" stroke="black" stroke-width="1" fill="blue" tooltip="enable"><title>(3.89083,4)</title></rect><rect x="594" y="200" width="6" height="0" stroke="black" stroke-width="1" fill="blue" tooltip="enable"><title>(3.93053,0)</title></rect><text x="30" y="240" font-size="20" fill="black">0</text>
<text x="600" y="240" font-size="20" fill="black">3.97023</text>
<polyline points="0,220,600,220" stroke="black" stroke-width="1" fill="none"/>
<text x="720" y="20" font-size="20" fill="black">10077</text>
<text x="720" y="200" font-size="20" fill="black">0</text>
<polyline points="660,0,660,200" stroke="black" stroke-width="1" fill="none"/>
</svg>