<?xml version="1.0" standalone="yes"?>
<!-- SVG graphic -->
<svg xmlns='http://www.w3.org/2000/svg' xmlns:xlink='http://www.w3.org/1999/xlink'
width="70px" height="70px" preserveAspectRatio="xMinYMin meet" viewBox="0 0 70 70" version="1.1">
<rect x="5" y="0" width="2.5" height="2.5" fill="rgb(218,0,36)" tooltip="enable"><title>(1,0 2032)</title></rect><rect x="10" y="0" width="2.5" height="2.5" fill="rgb(122,0,132)" tooltip="enable"><title>(2,0 1138)</title></rect><rect x="15" y="0" width="2.5" height="2.5" fill="rgb(86,0,168)" tooltip="enable"><title>(3,0 801)</title></rect><rect x="20" y="0" width="2.5" height="2.5" fill="rgb(62,0,192)" tooltip="enable"><title>(4,0 579)</title></rect><rect x="25" y="0" width="2.5" height="2.5" fill="rgb(36,0,218)" tooltip="enable"><title>(5,0 338)</title></rect><rect x="30" y="0" width="2.5" height="2.5" fill="rgb(28,0,226)" tooltip="enable"><title>(6,0 263)</title></rect><rect x="35" y="0" width="2.5" height="2.5" fill="rgb(24,0,230)" tooltip="enable"><title>(7,0 226)</title></rect><rect x="40" y="0" width="2.5" height="2.5" fill="rgb(19,0,235)" tooltip="enable"><title>(8,0 181)</title></rect><rect x="45" y="0" width="2.5" height="2.5" fill="rgb(3,0,251)" tooltip="enable"><title>(9,0 36)</title></rect><rect x="50" y="0" width="2.5" height="2.5" fill="rgb(7,0,247)" tooltip="enable"><title>(10,0 67)</title></rect><rect x="10" y="5" width="2.5" height="2.5" fill="rgb(255,0,0)" tooltip="enable"><title>(2,1 2367)</title></rect><rect x="15" y="5" width="2.5" height="2.5" fill="rgb(170,0,84)" tooltip="enable"><title>(3,1 1585)</title></rect><rect x="20" y="5" width="2.5" height="2.5" fill="rgb(126,0,128)" tooltip="enable"><title>(4,1 1171)</title></rect><rect x="25" y="5" width="2.5" height="2.5" fill="rgb(72,0,182)" tooltip="enable"><title>(5,1 672)</title></rect><rect x="30" y="5" width="2.5" height="2.5" fill="rgb(56,0,198)" tooltip="enable"><title>(6,1 526)</title></rect><rect x="35" y="5" width="2.5" height="2.5" fill="rgb(46,0,208)" tooltip="enable"><title>(7,1 431)</title></rect><rect x="40" y="5" width="2.5" height="2.5" fill="rgb(26,0,228)" tooltip="enable"><title>(8,1 246)</title></rect><rect x="45" y="5" width="2.5" height="2.5" fill="rgb(4,0,250)" tooltip="enable"><title>(9,1 40)</title></rect><rect x="50" y="5" width="2.5" height="2.5" fill="rgb(8,0,246)" tooltip="enable"><title>(10,1 81)</title></rect><rect x="15" y="10" width="2.5" height="2.5" fill="rgb(245,0,9)" tooltip="enable"><title>(3,2 2275)</title></rect><rect x="20" y="10" width="2.5" height="2.5" fill="rgb(170,0,84)" tooltip="enable"><title>(4,2 1584)</title></rect><rect x="25" y="10" width="2.5" height="2.5" fill="rgb(101,0,153)" tooltip="enable"><title>(5,2 939)</title></rect><rect x="30" y="10" width="2.5" height="2.5" fill="rgb(77,0,177)" tooltip="enable"><title>(6,2 716)</title></rect><rect x="35" y="10" width="2.5" height="2.5" fill="rgb(57,0,197)" tooltip="enable"><title>(7,2 534)</title></rect><rect x="40" y="10" width="2.5" height="2.5" fill="rgb(35,0,219)" tooltip="enable"><title>(8,2 325)</title></rect><rect x="45" y="10" width="2.5" height="2.5" fill="rgb(5,0,249)" tooltip="enable"><title>(9,2 50)</title></rect><rect x="50" y="10" width="2.5" height="2.5" fill="rgb(8,0,246)" tooltip="enable"><title>(10,2 82)</title></rect><rect x="20" y="15" width="2.5" height="2.5" fill="rgb(201,0,53)" tooltip="enable"><title>(4,3 1875)</title></rect><rect x="25" y="15" width="2.5" height="2.5" fill="rgb(119,0,135)" tooltip="enable"><title>(5,3 1111)</title></rect><rect x="30" y="15" width="2.5" height="2.5" fill="rgb(104,0,150)" tooltip="enable"><title>(6,3 967)</title></rect><rect x="35" y="15" width="2.5" height="2.5" fill="rgb(73,0,181)" tooltip="enable"><title>(7,3 684)</title></rect><rect x="40" y="15" width="2.5" height="2.5" fill="rgb(41,0,213)" tooltip="enable"><title>(8,3 381)</title></rect><rect x="45" y="15" width="2.5" height="2.5" fill="rgb(7,0,247)" tooltip="enable"><title>(9,3 72)</title></rect><rect x="50" y="15" width="2.5" height="2.5" fill="rgb(5,0,249)" tooltip="enable"><title>(10,3 49)</title></rect><rect x="25" y="20" width="2.5" height="2.5" fill="rgb(179,0,75)" tooltip="enable"><title>(5,4 1666)</title></rect><rect x="30" y="20" width="2.5" height="2.5" fill="rgb(126,0,128)" tooltip="enable"><title>(6,4 1172)</title></rect><rect x="35" y="20" width="2.5" height="2.5" fill="rgb(106,0,148)" tooltip="enable"><title>(7,4 984)</title></rect><rect x="40" y="20" width="2.5" height="2.5" fill="rgb(58,0,196)" tooltip="enable"><title>(8,4 539)</title></rect><rect x="45" y="20" width="2.5" height="2.5" fill="rgb(9,0,245)" tooltip="enable"><title>(9,4 84)</title></rect><rect x="50" y="20" width="2.5" height="2.5" fill="rgb(10,0,244)" tooltip="enable"><title>(10,4 100)</title></rect><rect x="30" y="25" width="2.5" height="2.5" fill="rgb(176,0,78)" tooltip="enable"><title>(6,5 1634)</title></rect><rect x="35" y="25" width="2.5" height="2.5" fill="rgb(119,0,135)" tooltip="enable"><title>(7,5 1109)</title></rect><rect x="40" y="25" width="2.5" height="2.5" fill="rgb(73,0,181)" tooltip="enable"><title>(8,5 685)</title></rect><rect x="45" y="25" width="2.5" height="2.5" fill="rgb(14,0,240)" tooltip="enable"><title>(9,5 138)</title></rect><rect x="50" y="25" width="2.5" height="2.5" fill="rgb(10,0,244)" tooltip="enable"><title>(10,5 95)</title></rect><rect x="35" y="30" width="2.5" height="2.5" fill="rgb(171,0,83)" tooltip="enable"><title>(7,6 1594)</title></rect><rect x="40" y="30" width="2.5" height="2.5" fill="rgb(104,0,150)" tooltip="enable"><title>(8,6 973)</title></rect><rect x="45" y="30" width="2.5" height="2.5" fill="rgb(21,0,233)" tooltip="enable"><title>(9,6 201)</title></rect><rect x="50" y="30" width="2.5" height="2.5" fill="rgb(13,0,241)" tooltip="enable"><title>(10,6 128)</title></rect><rect x="40" y="35" width="2.5" height="2.5" fill="rgb(169,0,85)" tooltip="enable"><title>(8,7 1570)</title></rect><rect x="45" y="35" width="2.5" height="2.5" fill="rgb(32,0,222)" tooltip="enable"><title>(9,7 304)</title></rect><rect x="50" y="35" width="2.5" height="2.5" fill="rgb(32,0,222)" tooltip="enable"><title>(10,7 299)</title></rect><rect x="45" y="40" width="2.5" height="2.5" fill="rgb(59,0,195)" tooltip="enable"><title>(9,8 552)</title></rect><rect x="50" y="40" width="2.5" height="2.5" fill="rgb(54,0,200)" tooltip="enable"><title>(10,8 510)</title></rect><rect x="50" y="45" width="2.5" height="2.5" fill="rgb(30,0,224)" tooltip="enable"><title>(10,9 283)</title></rect><text x="60" y="5" font-size="5" fill="black">0</text>
<text x="60" y="50" font-size="5" fill="black">11</text>
<polyline points="60,10,60,45" stroke="black" stroke-width="1" fill="none"/>
<text x="5" y="60" font-size="5" fill="black">0</text>
<text x="50" y="60" font-size="5" fill="black">11</text>
<polyline points="10,60,45,60" stroke="black" stroke-width="1" fill="none"/>
</svg>