<?xml version="1.0" standalone="yes"?>
<!-- SVG graphic -->
<svg xmlns='http://www.w3.org/2000/svg' xmlns:xlink='http://www.w3.org/1999/xlink'
width="70px" height="70px" preserveAspectRatio="xMinYMin meet" viewBox="0 0 70 70" version="1.1">
<rect x="5" y="0" width="2.5" height="2.5" fill="rgb(230,0,24)" tooltip="enable"><title>(1,0 2420)</title></rect><rect x="10" y="0" width="2.5" height="2.5" fill="rgb(144,0,110)" tooltip="enable"><title>(2,0 1512)</title></rect><rect x="15" y="0" width="2.5" height="2.5" fill="rgb(104,0,150)" tooltip="enable"><title>(3,0 1095)</title></rect><rect x="20" y="0" width="2.5" height="2.5" fill="rgb(85,0,169)" tooltip="enable"><title>(4,0 900)</title></rect><rect x="25" y="0" width="2.5" height="2.5" fill="rgb(53,0,201)" tooltip="enable"><title>(5,0 564)</title></rect><rect x="30" y="0" width="2.5" height="2.5" fill="rgb(43,0,211)" tooltip="enable"><title>(6,0 456)</title></rect><rect x="35" y="0" width="2.5" height="2.5" fill="rgb(46,0,208)" tooltip="enable"><title>(7,0 486)</title></rect><rect x="40" y="0" width="2.5" height="2.5" fill="rgb(34,0,220)" tooltip="enable"><title>(8,0 357)</title></rect><rect x="45" y="0" width="2.5" height="2.5" fill="rgb(14,0,240)" tooltip="enable"><title>(9,0 155)</title></rect><rect x="50" y="0" width="2.5" height="2.5" fill="rgb(26,0,228)" tooltip="enable"><title>(10,0 282)</title></rect><rect x="10" y="5" width="2.5" height="2.5" fill="rgb(255,0,0)" tooltip="enable"><title>(2,1 2674)</title></rect><rect x="15" y="5" width="2.5" height="2.5" fill="rgb(181,0,73)" tooltip="enable"><title>(3,1 1902)</title></rect><rect x="20" y="5" width="2.5" height="2.5" fill="rgb(137,0,117)" tooltip="enable"><title>(4,1 1438)</title></rect><rect x="25" y="5" width="2.5" height="2.5" fill="rgb(88,0,166)" tooltip="enable"><title>(5,1 926)</title></rect><rect x="30" y="5" width="2.5" height="2.5" fill="rgb(72,0,182)" tooltip="enable"><title>(6,1 765)</title></rect><rect x="35" y="5" width="2.5" height="2.5" fill="rgb(66,0,188)" tooltip="enable"><title>(7,1 701)</title></rect><rect x="40" y="5" width="2.5" height="2.5" fill="rgb(47,0,207)" tooltip="enable"><title>(8,1 493)</title></rect><rect x="45" y="5" width="2.5" height="2.5" fill="rgb(13,0,241)" tooltip="enable"><title>(9,1 143)</title></rect><rect x="50" y="5" width="2.5" height="2.5" fill="rgb(28,0,226)" tooltip="enable"><title>(10,1 304)</title></rect><rect x="15" y="10" width="2.5" height="2.5" fill="rgb(244,0,10)" tooltip="enable"><title>(3,2 2567)</title></rect><rect x="20" y="10" width="2.5" height="2.5" fill="rgb(180,0,74)" tooltip="enable"><title>(4,2 1889)</title></rect><rect x="25" y="10" width="2.5" height="2.5" fill="rgb(111,0,143)" tooltip="enable"><title>(5,2 1174)</title></rect><rect x="30" y="10" width="2.5" height="2.5" fill="rgb(87,0,167)" tooltip="enable"><title>(6,2 921)</title></rect><rect x="35" y="10" width="2.5" height="2.5" fill="rgb(79,0,175)" tooltip="enable"><title>(7,2 829)</title></rect><rect x="40" y="10" width="2.5" height="2.5" fill="rgb(55,0,199)" tooltip="enable"><title>(8,2 578)</title></rect><rect x="45" y="10" width="2.5" height="2.5" fill="rgb(12,0,242)" tooltip="enable"><title>(9,2 128)</title></rect><rect x="50" y="10" width="2.5" height="2.5" fill="rgb(26,0,228)" tooltip="enable"><title>(10,2 278)</title></rect><rect x="20" y="15" width="2.5" height="2.5" fill="rgb(212,0,42)" tooltip="enable"><title>(4,3 2232)</title></rect><rect x="25" y="15" width="2.5" height="2.5" fill="rgb(133,0,121)" tooltip="enable"><title>(5,3 1398)</title></rect><rect x="30" y="15" width="2.5" height="2.5" fill="rgb(111,0,143)" tooltip="enable"><title>(6,3 1165)</title></rect><rect x="35" y="15" width="2.5" height="2.5" fill="rgb(88,0,166)" tooltip="enable"><title>(7,3 932)</title></rect><rect x="40" y="15" width="2.5" height="2.5" fill="rgb(54,0,200)" tooltip="enable"><title>(8,3 575)</title></rect><rect x="45" y="15" width="2.5" height="2.5" fill="rgb(16,0,238)" tooltip="enable"><title>(9,3 173)</title></rect><rect x="50" y="15" width="2.5" height="2.5" fill="rgb(23,0,231)" tooltip="enable"><title>(10,3 251)</title></rect><rect x="25" y="20" width="2.5" height="2.5" fill="rgb(185,0,69)" tooltip="enable"><title>(5,4 1942)</title></rect><rect x="30" y="20" width="2.5" height="2.5" fill="rgb(136,0,118)" tooltip="enable"><title>(6,4 1436)</title></rect><rect x="35" y="20" width="2.5" height="2.5" fill="rgb(116,0,138)" tooltip="enable"><title>(7,4 1224)</title></rect><rect x="40" y="20" width="2.5" height="2.5" fill="rgb(70,0,184)" tooltip="enable"><title>(8,4 740)</title></rect><rect x="45" y="20" width="2.5" height="2.5" fill="rgb(17,0,237)" tooltip="enable"><title>(9,4 180)</title></rect><rect x="50" y="20" width="2.5" height="2.5" fill="rgb(24,0,230)" tooltip="enable"><title>(10,4 256)</title></rect><rect x="30" y="25" width="2.5" height="2.5" fill="rgb(182,0,72)" tooltip="enable"><title>(6,5 1916)</title></rect><rect x="35" y="25" width="2.5" height="2.5" fill="rgb(133,0,121)" tooltip="enable"><title>(7,5 1403)</title></rect><rect x="40" y="25" width="2.5" height="2.5" fill="rgb(85,0,169)" tooltip="enable"><title>(8,5 895)</title></rect><rect x="45" y="25" width="2.5" height="2.5" fill="rgb(24,0,230)" tooltip="enable"><title>(9,5 252)</title></rect><rect x="50" y="25" width="2.5" height="2.5" fill="rgb(26,0,228)" tooltip="enable"><title>(10,5 275)</title></rect><rect x="35" y="30" width="2.5" height="2.5" fill="rgb(187,0,67)" tooltip="enable"><title>(7,6 1962)</title></rect><rect x="40" y="30" width="2.5" height="2.5" fill="rgb(117,0,137)" tooltip="enable"><title>(8,6 1233)</title></rect><rect x="45" y="30" width="2.5" height="2.5" fill="rgb(30,0,224)" tooltip="enable"><title>(9,6 321)</title></rect><rect x="50" y="30" width="2.5" height="2.5" fill="rgb(31,0,223)" tooltip="enable"><title>(10,6 327)</title></rect><rect x="40" y="35" width="2.5" height="2.5" fill="rgb(181,0,73)" tooltip="enable"><title>(8,7 1904)</title></rect><rect x="45" y="35" width="2.5" height="2.5" fill="rgb(40,0,214)" tooltip="enable"><title>(9,7 428)</title></rect><rect x="50" y="35" width="2.5" height="2.5" fill="rgb(54,0,200)" tooltip="enable"><title>(10,7 573)</title></rect><rect x="45" y="40" width="2.5" height="2.5" fill="rgb(68,0,186)" tooltip="enable"><title>(9,8 720)</title></rect><rect x="50" y="40" width="2.5" height="2.5" fill="rgb(81,0,173)" tooltip="enable"><title>(10,8 859)</title></rect><rect x="50" y="45" width="2.5" height="2.5" fill="rgb(58,0,196)" tooltip="enable"><title>(10,9 618)</title></rect><text x="60" y="5" font-size="5" fill="black">0</text>
<text x="60" y="50" font-size="5" fill="black">11</text>
<polyline points="60,10,60,45" stroke="black" stroke-width="1" fill="none"/>
<text x="5" y="60" font-size="5" fill="black">0</text>
<text x="50" y="60" font-size="5" fill="black">11</text>
<polyline points="10,60,45,60" stroke="black" stroke-width="1" fill="none"/>
</svg>